<mxfile host="app.diagrams.net" modified="2024-02-23T12:02:30.203Z" agent="Mozilla/5.0 (Macintosh; Intel Mac OS X 10_15_7) AppleWebKit/537.36 (KHTML, like Gecko) Chrome/121.0.0.0 Safari/537.36" etag="Kv62j7m0Hz4-8YvSOEHD" version="23.1.6" type="device">
  <diagram name="Page-1" id="dTQW8nmdERcjblrk-pnt">
    <mxGraphModel dx="1314" dy="832" grid="1" gridSize="10" guides="1" tooltips="1" connect="1" arrows="1" fold="1" page="1" pageScale="1" pageWidth="827" pageHeight="1169" math="0" shadow="0">
      <root>
        <mxCell id="0" />
        <mxCell id="1" parent="0" />
        <mxCell id="4LUnRma8o_YQ2aAeQ-uo-2" value="Data Sources" style="rounded=1;whiteSpace=wrap;html=1;verticalAlign=top;" parent="1" vertex="1">
          <mxGeometry x="40" y="70" width="120" height="330" as="geometry" />
        </mxCell>
        <mxCell id="fKt6-CcrcbfbB7j15rGw-12" style="edgeStyle=orthogonalEdgeStyle;rounded=0;orthogonalLoop=1;jettySize=auto;html=1;entryX=0.25;entryY=0;entryDx=0;entryDy=0;" parent="1" source="4LUnRma8o_YQ2aAeQ-uo-3" target="fKt6-CcrcbfbB7j15rGw-1" edge="1">
          <mxGeometry relative="1" as="geometry">
            <Array as="points">
              <mxPoint x="190" y="159" />
              <mxPoint x="190" y="250" />
              <mxPoint x="393" y="250" />
            </Array>
          </mxGeometry>
        </mxCell>
        <mxCell id="4LUnRma8o_YQ2aAeQ-uo-3" value="" style="shape=image;html=1;verticalAlign=top;verticalLabelPosition=bottom;labelBackgroundColor=#ffffff;imageAspect=0;aspect=fixed;image=https://cdn0.iconfinder.com/data/icons/phosphor-thin-vol-2/256/file-csv-thin-128.png" parent="1" vertex="1">
          <mxGeometry x="81" y="140" width="38" height="38" as="geometry" />
        </mxCell>
        <mxCell id="fKt6-CcrcbfbB7j15rGw-11" style="edgeStyle=orthogonalEdgeStyle;rounded=0;orthogonalLoop=1;jettySize=auto;html=1;entryX=0;entryY=0.5;entryDx=0;entryDy=0;" parent="1" source="4LUnRma8o_YQ2aAeQ-uo-5" target="4LUnRma8o_YQ2aAeQ-uo-9" edge="1">
          <mxGeometry relative="1" as="geometry" />
        </mxCell>
        <mxCell id="4LUnRma8o_YQ2aAeQ-uo-5" value="" style="shape=image;html=1;verticalAlign=top;verticalLabelPosition=bottom;labelBackgroundColor=#ffffff;imageAspect=0;aspect=fixed;image=https://cdn0.iconfinder.com/data/icons/phosphor-thin-vol-2/256/file-csv-thin-128.png" parent="1" vertex="1">
          <mxGeometry x="81" y="260" width="38" height="38" as="geometry" />
        </mxCell>
        <mxCell id="4LUnRma8o_YQ2aAeQ-uo-6" value="trip_data&lt;br&gt;(yellow &amp;amp; green)" style="text;html=1;align=center;verticalAlign=middle;whiteSpace=wrap;rounded=0;" parent="1" vertex="1">
          <mxGeometry x="55" y="310" width="90" height="30" as="geometry" />
        </mxCell>
        <mxCell id="4LUnRma8o_YQ2aAeQ-uo-7" value="taxi_zone_lookup" style="text;html=1;align=center;verticalAlign=middle;whiteSpace=wrap;rounded=0;" parent="1" vertex="1">
          <mxGeometry x="55" y="188" width="90" height="30" as="geometry" />
        </mxCell>
        <mxCell id="4LUnRma8o_YQ2aAeQ-uo-8" value="Storage" style="rounded=1;whiteSpace=wrap;html=1;verticalAlign=top;" parent="1" vertex="1">
          <mxGeometry x="220" y="70" width="420" height="130" as="geometry" />
        </mxCell>
        <mxCell id="4LUnRma8o_YQ2aAeQ-uo-22" style="edgeStyle=orthogonalEdgeStyle;rounded=0;orthogonalLoop=1;jettySize=auto;html=1;entryX=0.5;entryY=1;entryDx=0;entryDy=0;" parent="1" source="4LUnRma8o_YQ2aAeQ-uo-9" target="4LUnRma8o_YQ2aAeQ-uo-15" edge="1">
          <mxGeometry relative="1" as="geometry" />
        </mxCell>
        <mxCell id="4LUnRma8o_YQ2aAeQ-uo-9" value="Data Loader" style="rounded=1;whiteSpace=wrap;html=1;verticalAlign=top;" parent="1" vertex="1">
          <mxGeometry x="220" y="270" width="130" height="130" as="geometry" />
        </mxCell>
        <mxCell id="4LUnRma8o_YQ2aAeQ-uo-10" value="" style="shape=image;verticalLabelPosition=bottom;labelBackgroundColor=default;verticalAlign=top;aspect=fixed;imageAspect=0;image=data:image/png,iVBORw0KGgoAAAANSUhEUgAAAGwAAABaCAYAAABdRbN9AAAAAXNSR0IArs4c6QAAAIRlWElmTU0AKgAAAAgABQESAAMAAAABAAEAAAEaAAUAAAABAAAASgEbAAUAAAABAAAAUgEoAAMAAAABAAIAAIdpAAQAAAABAAAAWgAAAAAAAACQAAAAAQAAAJAAAAABAAOgAQADAAAAAQABAACgAgAEAAAAAQAAAGygAwAEAAAAAQAAAFoAAAAAxYJ2rQAAAAlwSFlzAAAWJQAAFiUBSVIk8AAAHtBJREFUeAHtXQd8nMWVf/NtVbMlWbaRu2y5EBuDkWXAGJBVDQZMEjuNFuAHIZ3kLgchyV24QHJp3JFGGhwEEpsSOsGqVjDEYDUXbNwt5CJXybLqane/uf+b1bf6drW7Wq2kuJzmp9XMN/PmTXkzb968ed98gs4Tt7Cg4DpBltejbU5XZ1va1nfeaY4W/myBs54tFRmKeggiTU6fRzQ6NTy6xnoSRxrCp5/lKecVwbiv5cVLiJqPEbldRHGJRImjfSRoxWRCnHDOJRoh2Fk0LKVO4mQjkasTxEomiWd24uQRX1zy2LOosgOvijbwLCM5zmQPjBDsTPZ+DGWPECyGTjuTWUYIdiZ7P4ayRwgWQ6edySxnVKxfkJs71arZ7x2KDsAebIbCc7qJ5JwsyPcSuzKMR+Ebk3LMBSpO7KgdiuKiwpF1VVF6zfpiiKxD584owaxknSgEPTB0zQGNKl4cSnQx41qUv+z7JOhr2flFn6oqKy6LGVFQxjNKMKMubYuXk3d0mpoB0mrzzQwkim5sfkFR65GPKP7ATpLX34E0iy9bdxfgsceyAJ7zWKwknniI2q5aQXoCNsu6TtICWMQr5/GQALy9YSfFbXvPFzdM/7PzipZJkv9Omk2Q7nlzUcGyWzaWrn1hKIo7Kwgm0anOHdVEXg95sbGVjjjVNuvxQ4pgHmZnYG1i92aSzniVJkBEcncTjRpDklVRCaNUvAScY1etIrYen0R6UoqKt7ScIAF4b1Kyeh7GfxaMsV940yYLsfLrpJevtlv21K5ZmF+YVF1W8uRgyx0ROgbbg0H5FxYsWw6uMFPP/TQmv50shbeSd2aWpgnt9zzzgsAH/DhCsAF3WeQMmpSflFY7WcdOUoAaBB9L/s3kHT/NgjXt2QUFBRMiY4icOkKwyP0z8FRBV2NGQUDt7VqN19Lr78F6ahljI8v/DBxpb45erL1xI6EYeyArKwsLrJgmJ83sg8Eal0CenM9y/KpFBQUL+wBEGTFCsCg7KhowLSUF0hEcS6khnHV2FiRXyHlS+1qI5Kiihk1KnD+/MEFL7Ya8Hd4JTUsyUt0TpisxXccZlhLtkSDtTpUsXB3Kl+nTiLCQs1PSou4lcmBQY/RSDyxLk+70DBKQOKXNQXqPVMl4OU5rbVL5hRaffElODnbX4d0poq76ykrsH6Jzuq4L5n6ENSyUY9bYfUke2WqKV2A22mpqatyh4CLFDRvBHOO11YKcN0Qq3EiL2/IOCIBOD+O09tM4y+og8X5JGIieaOy94usq/duCUMBaG8gA53Ro+/A/FIg/bhzJn9QT3e+P6Cfg1e1eRTBPBDpkzCOqKR4lUlLmLcrLa5DSMldoYhL2bYlgp24p9KPS691ZU1GxN1Rxw0YwLkzHbOiakx2qXH9c3Pb3yTIOElVauj+uT+BwPcmjDdSVPK5Pkjki7sBusqRPJUrGJjycAwzmJbmmXxQOggRmbiyba0vr8WMyJU1SWzM0ZaGd6NkXasKyFtN7LIilYAVESHawS2HhhLLzlx0BH3lZJ+/jNWVlWw1sw0owZmleo/Mw+q2ncHQP5+XNrtJoWMC2wD5mX0rixGFQ2ItNMDrb2Bwf440zqj19LuktTdBgjPLBA4faCIPFMatTbJQ32x9oPj3isYMYqy6SceC4o3wbZ+KNM2tOJs8i3e0GuwW7xMaandbeSpqrHXWyo26pio3GQjCwuA6opBrE4b1TaU5ouUJYfV3uGT1unDt9BnlSJ5AXa560YbZLL2kdrWRtOU62xr0X2I7Vf1HT6d7sgmXP6dJzPwjXMKwEU53R1Q4PvQ5iaK0+dsRri/op/sFQcC0nlaZDoNMkr00q7gSyIi/bZsBpnW1ok4+NWdpaiJj1sJIX65buG6jqWUABzCYCAuoo2dNB4jRsOthsoMdEgIlkqLm0jtOqo5iIPMiUYKBKHPg/sLYKy46Nd+g5qwJEewMTa2Kar/0CeVNDcxQvlDbuSbOpc+4S0tqaKemdvwrbyYOf0aT2CnA0jEiJRk8OkS91+YLQPeQ5Ut8Ho8TgautyhSVWnwy86W45xmOyuqq85HlOHyFYn14aXER1RQnWJrnDUvZn6J99BkCMkYl1ur2dPN4e7tFfMeAemF2kebq9kjz3MArOMkKw/jpu4OkQ8uSXtdMnyPP+WkUoRtHR1UXdWDujcQKse9TfV5PteAPpUt5XXVZWZ+Qb9jXMKOj/i5+VmztDs2i3YUZJy+4a4b00l3CwowjWbx9gFtoP7aSEjX/Dmtoike3b1WXFvzLnGyGYuTdiDM9fXDjOGUfXQsr4HPhWPhiX5rnqJrJetESxwFawwkjOgtloO7SbnPvqlCQNWh8GO72jpqK0z8YzZoItyi34OCSzsDbRguQUltK8iT1iNWrMIrPP+fYcKgyeLnDuJQ0xWCX50iXEf3Zi71ZIfC6IwD7ND8d5DYtelkDZKSkR3YXtgZx5sY/jm3GNBi4WKHHuxizHzVqTHueFwakpg9qHcRIG/PyFeYV39YApD8VYMPTjsW8aD4gMFHEp0GaifKEnJJP3suVkmXkJ2bFdYRbI6xY73mYkVa5Wh60Sh7DC61b1YGJhnVIwKG+fJP3xxvbWXx/csAEibV/X09q+Cf3FYL9Rj76a2h/c+ZyuYzDqk+dgaM4hAXWYFftE0E012Y3BeqoVW4ce59z5PiVWv8Vr2mH0GzacgvckR5HhI/jVOJr++8bS0moDPpwf8wyTQqZ1T5pDHfOX+nEnQFthcURW9/iBz9UA6CF4huBnYbE7RDuYWC1tbQEpzl1VeJb1sO/IRCBKUTEAhXqIiWCsuARLSFAsoEdBzdgElLBWW0R9b98anGcxzAaDiWU7so+sYH26pMfQ3JiJxV0Vk1jvdo9R6ujBaATOMzqp5ri6u/sQixPiPljP3unWzrYnODAYF5Fgi/IKb59/dWFGtAVgzxAtaMxwcmc1SbaYGqST2zdAzTWowR5Qg06Xyy9gmBNsR/eTHT/o23638913exc1MxDCmZmZjoUFRQ8GRfd5jEQwAb3XrQ67qIVt3d3I6WfXW7aUdPA+QwQdI+imDpBdHSTffYXkG78nyTq8QTqJYxG57jmi0meIXniUZAjVTzRFSOgNZfHTRBVriF56jGQjOnMQDt1A7R0d5K0upVFlT5OlR8FtoIzfXMGCRgtGx4+NuGA/O7dwcUrGjPewPD44Ly8P0md4B5i+LisnJ02zOh6DxPM5IxWFNghJz8Ivbm5v2ZSSlPxR97SLkluXrPSBQGEb39lC8aehkT+wi2j/Vp9yllNZaz53MWxz5+MYZQIEo0jjxIdOsqjLGnzu0IYPiQ4CZ/AMnjybaM4ioomQqpVo7ssb/F/NSCbw3s1EO7H4Bw00SkEfZVyk8NC4yViLfcrmYDzBzzqUzF0wvbNBArQ2+Qx8mcd4xk2l7omzMKl0StxczuaTD1aVr/2RkZ9lAEpJmWMhLUcK8RnIA+icHidpu06eW8zaDSOJfT/BZl95ZdIoR0IOaeLjiFyFXu2v1l7sJyxeZyJp7i61z/AjM5cQFJYw/OS9mQ4i6tCOoxwfIdBS4e3GMUcndvnQnne29lYuCEeoRy/wMV6lbcdpAM9+gXqxht9y+iRwcVdG53QcdbAxqo5DVXWqoER11JP/YNuo4TDVAk06+9E46Bbbwa5OKFhBo+Dzz8+xgnFgUnBly+GtgfBfUvV2yQEDRvVxVn7+FOwHFyAyaqkRHfCvuiPx8lPTA899RHy8ooFRwPnoSw+2UXy2FmEM2F1tlLS/Fgpg+SgI/Y9Y+wGzD9Tz7MeMA3vAKVKsiGAU+T2clv7n4atvV1PfwCPi40jYlRBpRJ03Pg982QmBB9JgJAdbFbpg/bPQmHhew75rRSTYgab1v5iEw6jpatRYvRhpJie7o9NIm7KcE0GWKCVvhvshFvPNlB1vM7FaunX3l4a6cTETrLGt7R8QArocTTjGNzs+5fX2ngOZk87FsJpVENllK4gVRbsSmhso7th+sEv9K5srKoI6Z/A9EDPBepSTaxP21qIWgZxVooHng1OzCspbxQajaJBN76bkbZWA1H9XVV76bBRZBgwStZARCjPW3NXW7vabbNJNbmFCBbYhHXbyGemFyhld3KKJyXRDmqD4OAeVndDprT0+I57ocscOpYQ0nlU4zo/WaRizae+/xDuP6ub6fV+PNt9A4WKeYVyQ3nziZdTwaNL+mj7lyo5OJEUQo/rkCIxwWDRa5mih3zzyAzq8ZxfdNieNJiYNv2KZ12BmfwMhFoQvGlv1Mo5J3IeoW//Enj17oqd0YLP7fQq7F+g3JwAaGxv19BmZdntrU17H1PmQck2skYmFn4hRGZwWb6cJTftp946dtHXTZuqENqFrfAYdaRuevpC89rZjX8VCxQAGGkuEaZveIlv7qWbplblVfy/ZE03fxQozqBnGhbZ2tP0SLWwavSvEVoNZ4wDYirkRR9tdNGHB5TT7wgtpxsxMylqaR9uPh1XFmbMOKMx7Kr0N6xR+ZFKtRYNEzay6N8h2+ngHBK3rq9YVb4sm32BgTFMidjTQNd4BNdaTJ7JXkMvBm/hAJ5zQPDijYGdQ5eD9KrLgdLnbHkdOq4Xyp48lh1Wjsn3H6bTLE4h4EE/SjRnFwhFmViwOb+hRWvVrZG1vboFZ0w215cXrY8Ez0DxDQjAuFEQrxXFL/okrVpGu2XCgysqgXvSKNUIQMRynaFCy8QsKNih2nQ1byXlwp0pum3cNnZ46DxqT3vxGvsH4ak3lNYq1FFGI6OHKsuJIaywEDM3deUy69aKqytJN4WCHOn7IeoSvOLA4CRUXkQ3gg1qQnJFJGZfl0OyZ02nm+GQa5bTR7a9uJozaIXNqfeINPb8TPUi8zo4mSq19E3WTO9yk37iptHT3kFU0CkRDRjAua2H+shzMq5IJF15ky1+5kjw4YvXix+dkbPNvs0BjiUU6NTGOMsalUrzDoeKD6/nK9oP0+7qDwdFRP6uZxJoJtgME6+MbBQbrWLgYXV9LCeAEwP/S6c62z0c63xpseeHyDynBuBAcwt2KY5inZxfeKG69YSlZeYMSxtkgQTqhsWcLI4vJzt4NQeCWl2uptTu6A0ZFICYKS3rIq9alAUh6Yarnj7Z7uyi15k3Suju6gfa71WVrf+pP/CcHBiXWh6rr4X17t0ycPqPx5N5d1+9scYsLZ02H0BC6GDZl7gab6uzqpE6XzzLWo4QASVOSbPR2PV6Q4I43fkwUluT4h9kjDSnUUMhy3iGYTUa7WLBIxqxi7QWOa6qlR7+uuqKYX0o4Yy788B9klbLzCm+GPeUTiZMyHDffcxdlpIZ/YS9cUY9v2E8bPmoOlzxs8cz+Eo/vo8QP17PU2gbZ6eGNpcU/Q4HRTflhq1mEQ7TBlnl4/96tE6ZmrHO3nlpW+876pLa0DMocnwIaRj9GFkwYTbtPttPx9sjHGYOtq5Gf91UJJz+iMRAqnMfrvbAV/AM2WJ+oKystBswgxRWjlMH50fdejOWwuYHF6vgDZPSbUjI/RoWrVtIlE1OixtYN8ftX7+6nTYdbos4zUECr9FDCoR2UWF/HAoUbnbIGNss/qi0rg23C2eWGnWBGc/EK6CcwSP8be6sp4y/OpqXXXUsXpSdHNeNwaksvbj1Mb3x41EA3aN8Cych5qpESd8EeA6fDINQpbEn+6PJ0PbalsjJ2EXXQNYuM4J9GMK4Gm3LBOuhe2Dd8C+vCxPjxE2le4XLKnj2NJiXHRa4pUrc2nqb/rW6gEzGwSGZ3NncHOU4coIT6LWRxd7Iww2qOYvC6PzXX7311OJW2/TYuSoB/KsGMOrHVkCUljQ197sLIXopZJxIvmESTFy6mKRlTadKYUTRhVBzF2/tKly6PTm9+eITW7jxGXQgHOxYYWIOiebrIBmMe+6nD5GzcQ5ZuEMjnmlFmiRT0pnS73qqprPQZxxipZ7l/Rghm7pOLc3MnOiy2GyC5L0f8EtAu2Ui3J46i+CmZFJcyBu+pJ8BuH/s1vMzOB4stUNbuaWiEeshFFlhYWdpPkaWjBabMvbIBCMMasr34/z6sMd7ThP4eXjioA/4zLu0ZbRyof8YJFlRhbUFe3hyLZrsY7GouLIamwWhoMmBw7QCxpAK7OFh2CdGNirtAZHw5QHZiOToOMh2D7vIYJLvD8HdDx7LrpMezeyAXowD3iBvpgZEeGOmBkR44d3pgSNYw3Jk0RifLUpxg1Gx5u2T/udB8vmgSZkMXsrleuNdTz8Z2DNpEgBslha0UFzq+gDdd6jIvu6zvkfNZ1nIeYFapbcdhT1l6wqiXzrLqRazOUBCMj7oWcCkQyUcnJyXNiFjiWZAoNW0e11XVmcSVZ0GVoq7CUBAsoDCp45TyLHe4QcNfR7yrPeR9MJzNP6cqO5wdca7gHiHYuUKpnnqa7KtD1lzDu2PQOFhm4SAvEReptJFOB6p1Vy1VVhr2YX72EhJD30htYU7hx4RVm4UvNSRBXd/hkZ4Dx9rbN8cqrc2dO9fuTE9fJEibhZUUlyoKmB3rDR69e8Omykpo4QMda6yw4AZGBj2xUZGw0WScMFcjqa/S0gSvbsJJ0K6B+DUdqG34KmAjbhbdaL6Y0gQedTD76sLJuoUmQIvjqV1Xwi8xoOIhHEt6qUkp34T+7W4szhOCQdBg7oTVHqE/XFdaehSfqjCIh9N7mVVTUczIAxzjTE4a/Q301D0hceL+LKijXgHxHqkrL98ekDnMg++szfkg6nkHcPp1kAY4GgpLVnoBdjjf3VS5tt6Iz8orWmrRRAU/I297VWlxopHGfnZBQR4uUv4rcOLmSfnkxrLiu8zpRhgDb56wiocAtwJxfTXVJPdIXfyy48iB327bti2qU1h+xzlO2O7DeLoFOCcZZUEN95uqsrVf7sMSL80tzAWxtuP44z9QkT7EYgSIT8bvizap7VyYX3SzgTScjw64JnVUyjZ8HeH7YXESxSPtc1Zh3QTrq2+Fw2XE82eANZuT6/kNro8Rb/YxGu1o+M02q6zDCUG8OS1cGDf8FEEOeQM4lRSJIX1pCFgtO2/ZtzWrqAMczvlCEYtziUy8zv1YfPqkLeBUeIk6suNbG+KEdSfq/AAg/cRSuYS8mv0AgsEO49OwcirmsyoF1POPZxQovAvjMfD1EZyKQKZ/2gwbHMZdTSsxWksRH1ABP068TGHOgw6w4ejqJzBM/S9zvDmMQXIb2PTrIMhYIx6zCceccgemzHvAzRapfo08E1RPTQ1JVCM/+wtzC68FgV7FiFRmysADlOIHZhiExaL8omdBiB8CzrykwJRSbkOOamSD9VCvQ/mzLWR9NzsvL7s3NjC0KK/oESwPTwFWDZSAVEkf4RD3exznL3BhbtEiEOqZgEpI+SewqJ/XlpdvMRD4rpezfg2HkF8KgDUATP6lSwuzcD71Z3Ss/3ocdOyzHo/8Wd264s0GqMKp2b4CuK8YOFHx+9ExW8CO/mLAsc9XJADuCQTVYGNCgUiPkqfr51WVlUcMWF6DNCfdjbSlqOvrdeWlh400dChQ4M/ksvKLlqPMlxBr52hFLKIvgA0FbKwxWH6AOn7WyMrEAf4feoXnCaxZhh2DWLi0YDHW6e9gCbhWwQpKImF9de4VRfO2bShuMvKzD5zc7gf9cThYhU3048LjfbL54P4PzQerRq217IKizUA+jzOp0SrlHbir709+JEGBAD5vSjOtYWJRQVEdOuZiTlYd66W7qirWPmUCDwgyO7ZatBcRyUcp3GknO9pplqmBGlgWrnajj6mMaJhXylU15SWvqOco/wWvYTAz/iwsXF80Ewts6UuwlPqtGSWzNYuwok0+Foj61ZLHtdw8UMzwHEYf3Is+eNyIh1ntL6pKS75uPPNgxXHSByCYmtVo9TGvR95Ys67kfQPG7KtRilG73CCWStTlw5GIxTBVpaV8LcEq/ECLvg7sZZlBLE4F2I8iEYthaitKKjxenS/+UOwMI35MXIL8Kqex43r6iYVnbHp/OlBiKUQB/0QczI//ahCLk9CirwYTi+NxFdh34CnhAjAnOqXnukjE4pN1nM1dznn9ToqApUETtgcMYqEjXVL3XB+OWIzDt4ZZ1MLpwynpUPNHe3/oLyBCoLq8pBSF/TkUCG7l/KQRD97eeMLjeth4juQz0QD/jAGDNfIWIwy7jJuMMKbsoca21uD1xZ8cbQCEQhEQ4Hscyr6vurz418az4fM9JgizgNHj9B9/UF4esP4aKexftGRJCswgioH/9t542YQlRq1FKi4nB4exuBOlx+Eg9jdV5eW4+SW8UwQDD/ZLQqDyajPPDJ/Vl4LF8MlQMBiBfpzAv2YgJ7/g4H/sxSkyF1x1lRIuMFqVzpLTMGPXxLpv68UdFNLpXyDiPxYUqx5HxyUtNhPW7VGsOxQoMZtzOhM2YDAvNQDQH7vwtb4rzFuWLKv1QuAcbcB4pPspIxzOVwQDkfxvnOBlBubRUTt3p9wWChgjy49TFwPD2X1SbArAaY33bS9wR6MRD7HBLwgZcYPxMfDu31i+9tGwOITM8Kfh9gTzvs4fjwALRZpmfw+EmG2Kr3B7ui7bWF4OSdvkdJFuPGEAuiHcbTWew/k+lmiSFnHv+oBec2ySpms3UYrmv/tb+iXQgeL0eg+5zRXGIPLhwrt+/ngpO/zhQQdkkxTeNZHQwGS/t2xcYBQKlrdFYNvlEFj8Awus4Blv0/FloTQu+Egk26j4nBCnEMDciex8LFEozYWChJnRlMhZAlMvcAQep7h0oURblMwVUA7m2VONcDS+Ix3fuDA76cMJIca/v0GnTDODDC4sUjWyrmNVUFg8mjjgT4OIzloW/zMC6uo8IVYbAoRKk/QQtiW3RfMVI1xQpJvxhQv7ZpikDwwAbFp9+wYjoh9f2AIElk6cODf0ZOlllZKu7wdNQLKVNP/iDsJDcemqZwDMNBOr1AaEM6CAEA8YANPJrq2bn5MTIMUZoF26G6ZyvTpF3HZ3A6exJIj94hOYLY+ADWIlUOurG+/E3b6xbO33+XkonY9gMKo0kKJS16lNtBERwecRie3AfQYIJKxyhJVIDv8NIx7tyM/KLSg0niP5bKeIUfrNXhhZYSiasefyb2LRNddAi1LQCzf4EHDOcNoc61QdgtApiVCiLn4nHlCb85Sxb6G+dxrRWItOQeVS1N+2yIAfqK8I1nVUrgahjnNmHiVgYc/3dxMpf9ANmrrnkEVtcjkvNNT+DSLu8HgO/Nsv9los2mpWljJcOMf6PrvFDpy916tDMuzdvJ46yQProJGftSjR6OgM+JA+BAh08treNJHp0GzrQn1cFITwb3dA3FkWh9gLP683r9zvJe/imvLidb1xQxtSBMMNo7j3QN7vR43rzdk+g3V2iPPNQn8iJKGlRXMd47QNoO0VRjQ3urq09G/GM3+aCUz534xnJgLY53s998D3wblw6bLZWmrau+ApVxp5MGNLq0vXvmY881oAPZRfhQPYsfgO14ZF+YVfZdZkwBk+1xOahvuzcosuNeKCfUibXtjV34T2+7kMRu1M2HxUZOfkXGCG7yEEa2J8TlCcEURdN3a1y8uNN17m5uQkZucV3II+fJiPXwy4wfqK5xpI8J2qZxDh36hyPAjRAK8Y8ssBIWQShJLL0PlLANfb6VLudrs6rqxbv17NUgMf+8D5FGBvN8cB636M1mKYVR/E28+JDIaRmgPfL4lh37K3U7qvDLU5xZrxF3SqX5/nw82KafE2KnwEGhDQVbsCOLNVmqTObk/XBENSC1ZN8fEKn6klpE96HnhX+PDhP24Hdbvac8ztYgMe6AR5jzXTD8egrKbCt/dQB9ysSekQIgoAw23jxFchfNykwqZ/+ObzjejEV1UUuBFgAgaICdQf9IveHKM3Hb9TSxmLiUM3GxB4mILw3agEHFYsI6HHR8dW6S5aYW6UGQQ478aOH2uyuLU3XmRAuGEdWx98PhhZg6vrVnxQUeFnqb15YZPtcd05zobrBohW9sar2wtWohwfVlNFMfqdGAkBbe3N5wvxeVWW07lKS0lbgzb7hB7oLG2O+D8Awt/Z2EudxBq31K7ZX0dRCww8yMOzuHcmI9FwWG4SjLDZF/zGPq5oGogLgGaWA+30LRgtd+J3OBIipLdgGH9Hbz5+Zc364sZwsIyTRVu8e/x5VieFg+N4xomT4u96m05cEenqOtaabCxd+ynk+CIGzImIOFk/R/RN81sq+Oqd/5gI3eoPq/Z7XJ9GPZ43cCJvH3bGdUO7L+PNNtL7cBUjL/tIf5265Z3mOCOMcsxae3PYAOnj9w6DoCRmEXETJi/TJOWg2OkYuUno0U6sSwdA5fUtnW2vD/TaA8aJd8KKYLSUA7wzzDjBQt453dX+2kBxqnfOpmUuRx2vwtSaDcnHjhckcNIs9oP4//B0d5aEmv287inFrC5/V1VR8nZQ83FAWfQd4FuEL6o8FOkTG1x+6pSM66RFY+FjFrhGPPqJLxmu8eieF82qqKAy+FHgHOxhwF6MKzIeZT1qCJiRqHO5B/4PdT4M5FDaHeYAAAAASUVORK5CYII=;" parent="1" vertex="1">
          <mxGeometry x="265.8" y="380" width="38.4" height="32" as="geometry" />
        </mxCell>
        <mxCell id="4LUnRma8o_YQ2aAeQ-uo-24" style="edgeStyle=orthogonalEdgeStyle;rounded=0;orthogonalLoop=1;jettySize=auto;html=1;entryX=0.5;entryY=1;entryDx=0;entryDy=0;" parent="1" source="4LUnRma8o_YQ2aAeQ-uo-12" target="4LUnRma8o_YQ2aAeQ-uo-16" edge="1">
          <mxGeometry relative="1" as="geometry" />
        </mxCell>
        <mxCell id="4LUnRma8o_YQ2aAeQ-uo-12" value="Data Transformation" style="rounded=1;whiteSpace=wrap;html=1;verticalAlign=top;" parent="1" vertex="1">
          <mxGeometry x="510" y="270" width="130" height="130" as="geometry" />
        </mxCell>
        <mxCell id="4LUnRma8o_YQ2aAeQ-uo-13" value="" style="shape=image;verticalLabelPosition=bottom;labelBackgroundColor=default;verticalAlign=top;aspect=fixed;imageAspect=0;image=data:image/png,iVBORw0KGgoAAAANSUhEUgAAAGwAAABaCAYAAABdRbN9AAAAAXNSR0IArs4c6QAAAIRlWElmTU0AKgAAAAgABQESAAMAAAABAAEAAAEaAAUAAAABAAAASgEbAAUAAAABAAAAUgEoAAMAAAABAAIAAIdpAAQAAAABAAAAWgAAAAAAAACQAAAAAQAAAJAAAAABAAOgAQADAAAAAQABAACgAgAEAAAAAQAAAGygAwAEAAAAAQAAAFoAAAAAxYJ2rQAAAAlwSFlzAAAWJQAAFiUBSVIk8AAAHtBJREFUeAHtXQd8nMWVf/NtVbMlWbaRu2y5EBuDkWXAGJBVDQZMEjuNFuAHIZ3kLgchyV24QHJp3JFGGhwEEpsSOsGqVjDEYDUXbNwt5CJXybLqane/uf+b1bf6drW7Wq2kuJzmp9XMN/PmTXkzb968ed98gs4Tt7Cg4DpBltejbU5XZ1va1nfeaY4W/myBs54tFRmKeggiTU6fRzQ6NTy6xnoSRxrCp5/lKecVwbiv5cVLiJqPEbldRHGJRImjfSRoxWRCnHDOJRoh2Fk0LKVO4mQjkasTxEomiWd24uQRX1zy2LOosgOvijbwLCM5zmQPjBDsTPZ+DGWPECyGTjuTWUYIdiZ7P4ayRwgWQ6edySxnVKxfkJs71arZ7x2KDsAebIbCc7qJ5JwsyPcSuzKMR+Ebk3LMBSpO7KgdiuKiwpF1VVF6zfpiiKxD584owaxknSgEPTB0zQGNKl4cSnQx41qUv+z7JOhr2flFn6oqKy6LGVFQxjNKMKMubYuXk3d0mpoB0mrzzQwkim5sfkFR65GPKP7ATpLX34E0iy9bdxfgsceyAJ7zWKwknniI2q5aQXoCNsu6TtICWMQr5/GQALy9YSfFbXvPFzdM/7PzipZJkv9Omk2Q7nlzUcGyWzaWrn1hKIo7Kwgm0anOHdVEXg95sbGVjjjVNuvxQ4pgHmZnYG1i92aSzniVJkBEcncTjRpDklVRCaNUvAScY1etIrYen0R6UoqKt7ScIAF4b1Kyeh7GfxaMsV940yYLsfLrpJevtlv21K5ZmF+YVF1W8uRgyx0ROgbbg0H5FxYsWw6uMFPP/TQmv50shbeSd2aWpgnt9zzzgsAH/DhCsAF3WeQMmpSflFY7WcdOUoAaBB9L/s3kHT/NgjXt2QUFBRMiY4icOkKwyP0z8FRBV2NGQUDt7VqN19Lr78F6ahljI8v/DBxpb45erL1xI6EYeyArKwsLrJgmJ83sg8Eal0CenM9y/KpFBQUL+wBEGTFCsCg7KhowLSUF0hEcS6khnHV2FiRXyHlS+1qI5Kiihk1KnD+/MEFL7Ya8Hd4JTUsyUt0TpisxXccZlhLtkSDtTpUsXB3Kl+nTiLCQs1PSou4lcmBQY/RSDyxLk+70DBKQOKXNQXqPVMl4OU5rbVL5hRaffElODnbX4d0poq76ykrsH6Jzuq4L5n6ENSyUY9bYfUke2WqKV2A22mpqatyh4CLFDRvBHOO11YKcN0Qq3EiL2/IOCIBOD+O09tM4y+og8X5JGIieaOy94usq/duCUMBaG8gA53Ro+/A/FIg/bhzJn9QT3e+P6Cfg1e1eRTBPBDpkzCOqKR4lUlLmLcrLa5DSMldoYhL2bYlgp24p9KPS691ZU1GxN1Rxw0YwLkzHbOiakx2qXH9c3Pb3yTIOElVauj+uT+BwPcmjDdSVPK5Pkjki7sBusqRPJUrGJjycAwzmJbmmXxQOggRmbiyba0vr8WMyJU1SWzM0ZaGd6NkXasKyFtN7LIilYAVESHawS2HhhLLzlx0BH3lZJ+/jNWVlWw1sw0owZmleo/Mw+q2ncHQP5+XNrtJoWMC2wD5mX0rixGFQ2ItNMDrb2Bwf440zqj19LuktTdBgjPLBA4faCIPFMatTbJQ32x9oPj3isYMYqy6SceC4o3wbZ+KNM2tOJs8i3e0GuwW7xMaandbeSpqrHXWyo26pio3GQjCwuA6opBrE4b1TaU5ouUJYfV3uGT1unDt9BnlSJ5AXa560YbZLL2kdrWRtOU62xr0X2I7Vf1HT6d7sgmXP6dJzPwjXMKwEU53R1Q4PvQ5iaK0+dsRri/op/sFQcC0nlaZDoNMkr00q7gSyIi/bZsBpnW1ok4+NWdpaiJj1sJIX65buG6jqWUABzCYCAuoo2dNB4jRsOthsoMdEgIlkqLm0jtOqo5iIPMiUYKBKHPg/sLYKy46Nd+g5qwJEewMTa2Kar/0CeVNDcxQvlDbuSbOpc+4S0tqaKemdvwrbyYOf0aT2CnA0jEiJRk8OkS91+YLQPeQ5Ut8Ho8TgautyhSVWnwy86W45xmOyuqq85HlOHyFYn14aXER1RQnWJrnDUvZn6J99BkCMkYl1ur2dPN4e7tFfMeAemF2kebq9kjz3MArOMkKw/jpu4OkQ8uSXtdMnyPP+WkUoRtHR1UXdWDujcQKse9TfV5PteAPpUt5XXVZWZ+Qb9jXMKOj/i5+VmztDs2i3YUZJy+4a4b00l3CwowjWbx9gFtoP7aSEjX/Dmtoike3b1WXFvzLnGyGYuTdiDM9fXDjOGUfXQsr4HPhWPhiX5rnqJrJetESxwFawwkjOgtloO7SbnPvqlCQNWh8GO72jpqK0z8YzZoItyi34OCSzsDbRguQUltK8iT1iNWrMIrPP+fYcKgyeLnDuJQ0xWCX50iXEf3Zi71ZIfC6IwD7ND8d5DYtelkDZKSkR3YXtgZx5sY/jm3GNBi4WKHHuxizHzVqTHueFwakpg9qHcRIG/PyFeYV39YApD8VYMPTjsW8aD4gMFHEp0GaifKEnJJP3suVkmXkJ2bFdYRbI6xY73mYkVa5Wh60Sh7DC61b1YGJhnVIwKG+fJP3xxvbWXx/csAEibV/X09q+Cf3FYL9Rj76a2h/c+ZyuYzDqk+dgaM4hAXWYFftE0E012Y3BeqoVW4ce59z5PiVWv8Vr2mH0GzacgvckR5HhI/jVOJr++8bS0moDPpwf8wyTQqZ1T5pDHfOX+nEnQFthcURW9/iBz9UA6CF4huBnYbE7RDuYWC1tbQEpzl1VeJb1sO/IRCBKUTEAhXqIiWCsuARLSFAsoEdBzdgElLBWW0R9b98anGcxzAaDiWU7so+sYH26pMfQ3JiJxV0Vk1jvdo9R6ujBaATOMzqp5ri6u/sQixPiPljP3unWzrYnODAYF5Fgi/IKb59/dWFGtAVgzxAtaMxwcmc1SbaYGqST2zdAzTWowR5Qg06Xyy9gmBNsR/eTHT/o23638913exc1MxDCmZmZjoUFRQ8GRfd5jEQwAb3XrQ67qIVt3d3I6WfXW7aUdPA+QwQdI+imDpBdHSTffYXkG78nyTq8QTqJYxG57jmi0meIXniUZAjVTzRFSOgNZfHTRBVriF56jGQjOnMQDt1A7R0d5K0upVFlT5OlR8FtoIzfXMGCRgtGx4+NuGA/O7dwcUrGjPewPD44Ly8P0md4B5i+LisnJ02zOh6DxPM5IxWFNghJz8Ivbm5v2ZSSlPxR97SLkluXrPSBQGEb39lC8aehkT+wi2j/Vp9yllNZaz53MWxz5+MYZQIEo0jjxIdOsqjLGnzu0IYPiQ4CZ/AMnjybaM4ioomQqpVo7ssb/F/NSCbw3s1EO7H4Bw00SkEfZVyk8NC4yViLfcrmYDzBzzqUzF0wvbNBArQ2+Qx8mcd4xk2l7omzMKl0StxczuaTD1aVr/2RkZ9lAEpJmWMhLUcK8RnIA+icHidpu06eW8zaDSOJfT/BZl95ZdIoR0IOaeLjiFyFXu2v1l7sJyxeZyJp7i61z/AjM5cQFJYw/OS9mQ4i6tCOoxwfIdBS4e3GMUcndvnQnne29lYuCEeoRy/wMV6lbcdpAM9+gXqxht9y+iRwcVdG53QcdbAxqo5DVXWqoER11JP/YNuo4TDVAk06+9E46Bbbwa5OKFhBo+Dzz8+xgnFgUnBly+GtgfBfUvV2yQEDRvVxVn7+FOwHFyAyaqkRHfCvuiPx8lPTA899RHy8ooFRwPnoSw+2UXy2FmEM2F1tlLS/Fgpg+SgI/Y9Y+wGzD9Tz7MeMA3vAKVKsiGAU+T2clv7n4atvV1PfwCPi40jYlRBpRJ03Pg982QmBB9JgJAdbFbpg/bPQmHhew75rRSTYgab1v5iEw6jpatRYvRhpJie7o9NIm7KcE0GWKCVvhvshFvPNlB1vM7FaunX3l4a6cTETrLGt7R8QArocTTjGNzs+5fX2ngOZk87FsJpVENllK4gVRbsSmhso7th+sEv9K5srKoI6Z/A9EDPBepSTaxP21qIWgZxVooHng1OzCspbxQajaJBN76bkbZWA1H9XVV76bBRZBgwStZARCjPW3NXW7vabbNJNbmFCBbYhHXbyGemFyhld3KKJyXRDmqD4OAeVndDprT0+I57ocscOpYQ0nlU4zo/WaRizae+/xDuP6ub6fV+PNt9A4WKeYVyQ3nziZdTwaNL+mj7lyo5OJEUQo/rkCIxwWDRa5mih3zzyAzq8ZxfdNieNJiYNv2KZ12BmfwMhFoQvGlv1Mo5J3IeoW//Enj17oqd0YLP7fQq7F+g3JwAaGxv19BmZdntrU17H1PmQck2skYmFn4hRGZwWb6cJTftp946dtHXTZuqENqFrfAYdaRuevpC89rZjX8VCxQAGGkuEaZveIlv7qWbplblVfy/ZE03fxQozqBnGhbZ2tP0SLWwavSvEVoNZ4wDYirkRR9tdNGHB5TT7wgtpxsxMylqaR9uPh1XFmbMOKMx7Kr0N6xR+ZFKtRYNEzay6N8h2+ngHBK3rq9YVb4sm32BgTFMidjTQNd4BNdaTJ7JXkMvBm/hAJ5zQPDijYGdQ5eD9KrLgdLnbHkdOq4Xyp48lh1Wjsn3H6bTLE4h4EE/SjRnFwhFmViwOb+hRWvVrZG1vboFZ0w215cXrY8Ez0DxDQjAuFEQrxXFL/okrVpGu2XCgysqgXvSKNUIQMRynaFCy8QsKNih2nQ1byXlwp0pum3cNnZ46DxqT3vxGvsH4ak3lNYq1FFGI6OHKsuJIaywEDM3deUy69aKqytJN4WCHOn7IeoSvOLA4CRUXkQ3gg1qQnJFJGZfl0OyZ02nm+GQa5bTR7a9uJozaIXNqfeINPb8TPUi8zo4mSq19E3WTO9yk37iptHT3kFU0CkRDRjAua2H+shzMq5IJF15ky1+5kjw4YvXix+dkbPNvs0BjiUU6NTGOMsalUrzDoeKD6/nK9oP0+7qDwdFRP6uZxJoJtgME6+MbBQbrWLgYXV9LCeAEwP/S6c62z0c63xpseeHyDynBuBAcwt2KY5inZxfeKG69YSlZeYMSxtkgQTqhsWcLI4vJzt4NQeCWl2uptTu6A0ZFICYKS3rIq9alAUh6Yarnj7Z7uyi15k3Suju6gfa71WVrf+pP/CcHBiXWh6rr4X17t0ycPqPx5N5d1+9scYsLZ02H0BC6GDZl7gab6uzqpE6XzzLWo4QASVOSbPR2PV6Q4I43fkwUluT4h9kjDSnUUMhy3iGYTUa7WLBIxqxi7QWOa6qlR7+uuqKYX0o4Yy788B9klbLzCm+GPeUTiZMyHDffcxdlpIZ/YS9cUY9v2E8bPmoOlzxs8cz+Eo/vo8QP17PU2gbZ6eGNpcU/Q4HRTflhq1mEQ7TBlnl4/96tE6ZmrHO3nlpW+876pLa0DMocnwIaRj9GFkwYTbtPttPx9sjHGYOtq5Gf91UJJz+iMRAqnMfrvbAV/AM2WJ+oKystBswgxRWjlMH50fdejOWwuYHF6vgDZPSbUjI/RoWrVtIlE1OixtYN8ftX7+6nTYdbos4zUECr9FDCoR2UWF/HAoUbnbIGNss/qi0rg23C2eWGnWBGc/EK6CcwSP8be6sp4y/OpqXXXUsXpSdHNeNwaksvbj1Mb3x41EA3aN8Cych5qpESd8EeA6fDINQpbEn+6PJ0PbalsjJ2EXXQNYuM4J9GMK4Gm3LBOuhe2Dd8C+vCxPjxE2le4XLKnj2NJiXHRa4pUrc2nqb/rW6gEzGwSGZ3NncHOU4coIT6LWRxd7Iww2qOYvC6PzXX7311OJW2/TYuSoB/KsGMOrHVkCUljQ197sLIXopZJxIvmESTFy6mKRlTadKYUTRhVBzF2/tKly6PTm9+eITW7jxGXQgHOxYYWIOiebrIBmMe+6nD5GzcQ5ZuEMjnmlFmiRT0pnS73qqprPQZxxipZ7l/Rghm7pOLc3MnOiy2GyC5L0f8EtAu2Ui3J46i+CmZFJcyBu+pJ8BuH/s1vMzOB4stUNbuaWiEeshFFlhYWdpPkaWjBabMvbIBCMMasr34/z6sMd7ThP4eXjioA/4zLu0ZbRyof8YJFlRhbUFe3hyLZrsY7GouLIamwWhoMmBw7QCxpAK7OFh2CdGNirtAZHw5QHZiOToOMh2D7vIYJLvD8HdDx7LrpMezeyAXowD3iBvpgZEeGOmBkR44d3pgSNYw3Jk0RifLUpxg1Gx5u2T/udB8vmgSZkMXsrleuNdTz8Z2DNpEgBslha0UFzq+gDdd6jIvu6zvkfNZ1nIeYFapbcdhT1l6wqiXzrLqRazOUBCMj7oWcCkQyUcnJyXNiFjiWZAoNW0e11XVmcSVZ0GVoq7CUBAsoDCp45TyLHe4QcNfR7yrPeR9MJzNP6cqO5wdca7gHiHYuUKpnnqa7KtD1lzDu2PQOFhm4SAvEReptJFOB6p1Vy1VVhr2YX72EhJD30htYU7hx4RVm4UvNSRBXd/hkZ4Dx9rbN8cqrc2dO9fuTE9fJEibhZUUlyoKmB3rDR69e8Omykpo4QMda6yw4AZGBj2xUZGw0WScMFcjqa/S0gSvbsJJ0K6B+DUdqG34KmAjbhbdaL6Y0gQedTD76sLJuoUmQIvjqV1Xwi8xoOIhHEt6qUkp34T+7W4szhOCQdBg7oTVHqE/XFdaehSfqjCIh9N7mVVTUczIAxzjTE4a/Q301D0hceL+LKijXgHxHqkrL98ekDnMg++szfkg6nkHcPp1kAY4GgpLVnoBdjjf3VS5tt6Iz8orWmrRRAU/I297VWlxopHGfnZBQR4uUv4rcOLmSfnkxrLiu8zpRhgDb56wiocAtwJxfTXVJPdIXfyy48iB327bti2qU1h+xzlO2O7DeLoFOCcZZUEN95uqsrVf7sMSL80tzAWxtuP44z9QkT7EYgSIT8bvizap7VyYX3SzgTScjw64JnVUyjZ8HeH7YXESxSPtc1Zh3QTrq2+Fw2XE82eANZuT6/kNro8Rb/YxGu1o+M02q6zDCUG8OS1cGDf8FEEOeQM4lRSJIX1pCFgtO2/ZtzWrqAMczvlCEYtziUy8zv1YfPqkLeBUeIk6suNbG+KEdSfq/AAg/cRSuYS8mv0AgsEO49OwcirmsyoF1POPZxQovAvjMfD1EZyKQKZ/2gwbHMZdTSsxWksRH1ABP068TGHOgw6w4ejqJzBM/S9zvDmMQXIb2PTrIMhYIx6zCceccgemzHvAzRapfo08E1RPTQ1JVCM/+wtzC68FgV7FiFRmysADlOIHZhiExaL8omdBiB8CzrykwJRSbkOOamSD9VCvQ/mzLWR9NzsvL7s3NjC0KK/oESwPTwFWDZSAVEkf4RD3exznL3BhbtEiEOqZgEpI+SewqJ/XlpdvMRD4rpezfg2HkF8KgDUATP6lSwuzcD71Z3Ss/3ocdOyzHo/8Wd264s0GqMKp2b4CuK8YOFHx+9ExW8CO/mLAsc9XJADuCQTVYGNCgUiPkqfr51WVlUcMWF6DNCfdjbSlqOvrdeWlh400dChQ4M/ksvKLlqPMlxBr52hFLKIvgA0FbKwxWH6AOn7WyMrEAf4feoXnCaxZhh2DWLi0YDHW6e9gCbhWwQpKImF9de4VRfO2bShuMvKzD5zc7gf9cThYhU3048LjfbL54P4PzQerRq217IKizUA+jzOp0SrlHbir709+JEGBAD5vSjOtYWJRQVEdOuZiTlYd66W7qirWPmUCDwgyO7ZatBcRyUcp3GknO9pplqmBGlgWrnajj6mMaJhXylU15SWvqOco/wWvYTAz/iwsXF80Ewts6UuwlPqtGSWzNYuwok0+Foj61ZLHtdw8UMzwHEYf3Is+eNyIh1ntL6pKS75uPPNgxXHSByCYmtVo9TGvR95Ys67kfQPG7KtRilG73CCWStTlw5GIxTBVpaV8LcEq/ECLvg7sZZlBLE4F2I8iEYthaitKKjxenS/+UOwMI35MXIL8Kqex43r6iYVnbHp/OlBiKUQB/0QczI//ahCLk9CirwYTi+NxFdh34CnhAjAnOqXnukjE4pN1nM1dznn9ToqApUETtgcMYqEjXVL3XB+OWIzDt4ZZ1MLpwynpUPNHe3/oLyBCoLq8pBSF/TkUCG7l/KQRD97eeMLjeth4juQz0QD/jAGDNfIWIwy7jJuMMKbsoca21uD1xZ8cbQCEQhEQ4Hscyr6vurz418az4fM9JgizgNHj9B9/UF4esP4aKexftGRJCswgioH/9t542YQlRq1FKi4nB4exuBOlx+Eg9jdV5eW4+SW8UwQDD/ZLQqDyajPPDJ/Vl4LF8MlQMBiBfpzAv2YgJ7/g4H/sxSkyF1x1lRIuMFqVzpLTMGPXxLpv68UdFNLpXyDiPxYUqx5HxyUtNhPW7VGsOxQoMZtzOhM2YDAvNQDQH7vwtb4rzFuWLKv1QuAcbcB4pPspIxzOVwQDkfxvnOBlBubRUTt3p9wWChgjy49TFwPD2X1SbArAaY33bS9wR6MRD7HBLwgZcYPxMfDu31i+9tGwOITM8Kfh9gTzvs4fjwALRZpmfw+EmG2Kr3B7ui7bWF4OSdvkdJFuPGEAuiHcbTWew/k+lmiSFnHv+oBec2ySpms3UYrmv/tb+iXQgeL0eg+5zRXGIPLhwrt+/ngpO/zhQQdkkxTeNZHQwGS/t2xcYBQKlrdFYNvlEFj8Awus4Blv0/FloTQu+Egk26j4nBCnEMDciex8LFEozYWChJnRlMhZAlMvcAQep7h0oURblMwVUA7m2VONcDS+Ix3fuDA76cMJIca/v0GnTDODDC4sUjWyrmNVUFg8mjjgT4OIzloW/zMC6uo8IVYbAoRKk/QQtiW3RfMVI1xQpJvxhQv7ZpikDwwAbFp9+wYjoh9f2AIElk6cODf0ZOlllZKu7wdNQLKVNP/iDsJDcemqZwDMNBOr1AaEM6CAEA8YANPJrq2bn5MTIMUZoF26G6ZyvTpF3HZ3A6exJIj94hOYLY+ADWIlUOurG+/E3b6xbO33+XkonY9gMKo0kKJS16lNtBERwecRie3AfQYIJKxyhJVIDv8NIx7tyM/KLSg0niP5bKeIUfrNXhhZYSiasefyb2LRNddAi1LQCzf4EHDOcNoc61QdgtApiVCiLn4nHlCb85Sxb6G+dxrRWItOQeVS1N+2yIAfqK8I1nVUrgahjnNmHiVgYc/3dxMpf9ANmrrnkEVtcjkvNNT+DSLu8HgO/Nsv9los2mpWljJcOMf6PrvFDpy916tDMuzdvJ46yQProJGftSjR6OgM+JA+BAh08treNJHp0GzrQn1cFITwb3dA3FkWh9gLP683r9zvJe/imvLidb1xQxtSBMMNo7j3QN7vR43rzdk+g3V2iPPNQn8iJKGlRXMd47QNoO0VRjQ3urq09G/GM3+aCUz534xnJgLY53s998D3wblw6bLZWmrau+ApVxp5MGNLq0vXvmY881oAPZRfhQPYsfgO14ZF+YVfZdZkwBk+1xOahvuzcosuNeKCfUibXtjV34T2+7kMRu1M2HxUZOfkXGCG7yEEa2J8TlCcEURdN3a1y8uNN17m5uQkZucV3II+fJiPXwy4wfqK5xpI8J2qZxDh36hyPAjRAK8Y8ssBIWQShJLL0PlLANfb6VLudrs6rqxbv17NUgMf+8D5FGBvN8cB636M1mKYVR/E28+JDIaRmgPfL4lh37K3U7qvDLU5xZrxF3SqX5/nw82KafE2KnwEGhDQVbsCOLNVmqTObk/XBENSC1ZN8fEKn6klpE96HnhX+PDhP24Hdbvac8ztYgMe6AR5jzXTD8egrKbCt/dQB9ysSekQIgoAw23jxFchfNykwqZ/+ObzjejEV1UUuBFgAgaICdQf9IveHKM3Hb9TSxmLiUM3GxB4mILw3agEHFYsI6HHR8dW6S5aYW6UGQQ478aOH2uyuLU3XmRAuGEdWx98PhhZg6vrVnxQUeFnqb15YZPtcd05zobrBohW9sar2wtWohwfVlNFMfqdGAkBbe3N5wvxeVWW07lKS0lbgzb7hB7oLG2O+D8Awt/Z2EudxBq31K7ZX0dRCww8yMOzuHcmI9FwWG4SjLDZF/zGPq5oGogLgGaWA+30LRgtd+J3OBIipLdgGH9Hbz5+Zc364sZwsIyTRVu8e/x5VieFg+N4xomT4u96m05cEenqOtaabCxd+ynk+CIGzImIOFk/R/RN81sq+Oqd/5gI3eoPq/Z7XJ9GPZ43cCJvH3bGdUO7L+PNNtL7cBUjL/tIf5265Z3mOCOMcsxae3PYAOnj9w6DoCRmEXETJi/TJOWg2OkYuUno0U6sSwdA5fUtnW2vD/TaA8aJd8KKYLSUA7wzzDjBQt453dX+2kBxqnfOpmUuRx2vwtSaDcnHjhckcNIs9oP4//B0d5aEmv287inFrC5/V1VR8nZQ83FAWfQd4FuEL6o8FOkTG1x+6pSM66RFY+FjFrhGPPqJLxmu8eieF82qqKAy+FHgHOxhwF6MKzIeZT1qCJiRqHO5B/4PdT4M5FDaHeYAAAAASUVORK5CYII=;" parent="1" vertex="1">
          <mxGeometry x="410.8" y="188" width="38.4" height="32" as="geometry" />
        </mxCell>
        <mxCell id="4LUnRma8o_YQ2aAeQ-uo-14" value="" style="shape=image;verticalLabelPosition=bottom;labelBackgroundColor=default;verticalAlign=top;aspect=fixed;imageAspect=0;image=data:image/png,iVBORw0KGgoAAAANSUhEUgAAAIwAAACOCAYAAADjCOA1AAAAAXNSR0IArs4c6QAAAIRlWElmTU0AKgAAAAgABQESAAMAAAABAAEAAAEaAAUAAAABAAAASgEbAAUAAAABAAAAUgEoAAMAAAABAAIAAIdpAAQAAAABAAAAWgAAAAAAAACQAAAAAQAAAJAAAAABAAOgAQADAAAAAQABAACgAgAEAAAAAQAAAIygAwAEAAAAAQAAAI4AAAAAcJ4z0gAAAAlwSFlzAAAWJQAAFiUBSVIk8AAAMRBJREFUeAHtXQm8TsX7H/u+c+37mi17xA+hlEQkUST1LyJLJVGyRaWoSJS0E5Ul8SO7LAll34lrX8K177z/73fuPefOzHve7d53we8+9/Pcd2bOnJk5c54z88zzPPNMMpEE4eqBzKioOLAEsCiwMLAgsAAwFzArMHUcXsbvBeAJ4CFgNHAfcDdwB3An8Bww7JAs7DW6V8g2uNyTI5LCl5YXmAOYCZgGmBx4DXgpDs/jly/yDJBhJ0iPxCrA+sB7gTWALDOYcByFLQXOAi4D7gGGHEJNMHwB5RQshTC/qDzAdMCUcXgdv8QrwFPAw8C9ccgvip3B+L/AYAEJgy+yEbABkF8+v/BAgITEtm4BbgCeBbYB3g0MN5CAvovDTaGqPNgEkwINrQl8PA7zBbnhF1HeOuBC4BLgZmAgRERifQLYDcgpIeKQOnVqQUyVKpX8vXnzpnC5XOLKlSvi2rVr4vJlzk4BA4l4EHAikFNb0CBYBFMULeoRh0FrnJ8FcXr4ETgVuB4YAzSBI8kHwLrmhXDEc+TIIQoVKiSKFy8uqlWrJipXrizKli0rsmfPLtKn5+zlGUgwJ06cEFu2bBFr164Va9asEdu3bxd79+71l5iGoXSiU794rtjDlcQSzF0o9wtgbQ/la8np0qUTmTNnFhkzZhRp0qQRKVOmFClSpBD8qq5fvy6/qgsXLgjixYsXZZpWgH8RjjojgHOBUcDJwDJAj8C25M6dW+TKlUu+1Hz58smXybayfWzP2bNnxcmTJ8WhQ4cknjp1Shw/flxcukTWRociRYpIwmjbtq1o1KiRfGY9R3BimzZtEuPGjRNz584Vu3bt8lXo28jwDjBBQ5avwn1dJ2/yK5DMqiOCKFwVKlRwvfLKK64lS5a4Tp8+jZE2MDh8+LBrzpw5rr59+7rQ8S68CBeIzrE+T+3wlF6sWDFXjx49XPhyA2uUkfvYsWOur7/+2vXII4+4hg0b5gKhGznCEz137pyrd+/errx583rrn5voj6bAsEIz1ObYKAyvrsaNG7tWrVoV0l6Kjo52DRkyxFWlShVX1qxZHdvi1EZMAa6ePXu6zp8/H9L2+Vv4tes3XJeuXHOdvXDZdercRdeJMxcknjp70XXmwiXXxctXXcwTKCxbtsyFKc9bv/yB/smYEKoJZEpiXvIJLcyKMmXKJAYOHCgwmpiXwhLn1DBy5EgxefJkceDAAcksqhVny5ZNjBgxQnTs2FFNDlv4Bqbco6fOiT1HYsSG3YfF6m37xcGTZ8Sps5fE+ctXRYpkyUQyYlyL5JsG43sTmC51KpEzS3pROHc2UatcYVGtdAFRNE92kTl9GkyXyb0+A3mdFi1aSJ7HQ8ZaSP/TwzXHZKuNjheVxFQI/wOkoMkG8iD9+/cXb731lp3mKcCHx9cirl67Ia7fuCnwZYkr18C3IJ4qZQqRJlUKkSFtapEieTLwNilEamCK5MnRkZ5K9Jz+5Zdfivfff19gJBIvvfSSJBbPuYXgC714+Zo4ceaiiD56Uuw5GiOO4QWfu3hFDqVpU6cUWTOmE3mzZxL5c2YWhaKyIZ5WpE2DlQ3a6QswQohpSzeLD6csE5euXhPJE/JQcZWw79hnqVMmFw2rlBQdGlcRpQtGCbbRE5DHeeyxxyQv5pBnMNIGOKQ7JvnzOkgs5LAzqCWULl1arF+/XqRNm1ZNtsM3b7rE+UtXxB9b9onpyzaLzdFH5QshEbDDkuHjUDsOfSq/KBfuI3Hxc8uTLaMolj+nqFO+iKhRpqAogq8sDTompY8vy26ElwCJdeu+4+LzmX/KNl6/fhOEm1wSq7dO4cu/hpd2A/mvu26KInmyicbVSonm95YTBaKygPA9vzg2Z/bq7WLg1/MlkXJUSSxgxhKXr14VjaqWFG+1ayii0Geeyn3yySfFpEmTnKpcgMTGQPI4XsFXi/n0FAhlU0vp1auX+OADrlLd4SJGjonz14rPZ63Cg1yXL9hXJe6luKfcQMdwhHLhr2zhKNH6vkropBIiUzqstgIgILZv4DfzxKyV2/BVphLJMaIFA/jl83nLF80terWuJ6cOb+0aNmmJmLR4vUiJDyhYwNE7e+Z0YkzPFuKuQrkdR+c//vhD1K7tuKiluqEckAJUj+Crt1bhTsowbCCFtmlDYaYOHGr7fD5HzF+7U6RPk1q/GKLYVRAQR4aqpfOLFx+pJWqWK6SNWmq17MxXx84Ui9f/IwlFvRbsMEfIy+iPZhh13nyqgcgEfsMJOMo17j0eU99Vx5frdI8/aZxis2VKLya+2VZOo+Y9FBPkyZNHgPk3L+1DQnHgDfOCFfdGMN2QaZSVkb9Tp04VLVu2VJNk+Pt5a8W7kxaDUDh7RQauovM7N6spujSn6kYHEknXkdPDRshq7SSKisXzis96tvRIOCN+XComLFjrk4lVy/UnzLrvx3T54YvuK2nKvsqVK+fEEG9F2eWB5L3dwBPBUM9C8bINWMaKN998045bgZb9vxPRx2I8ftlWvlD+3sB08GyT6qJbC/ehtsfoGWLZxr2YeoI39CfkWa5hhKtdoTCmC/cPjuVt239ctH37h4CmV3/bwRFv2qCnJb+l3kN+rGbNmmL16tVqMsMzgI+aiYx7IhgSC4lGAilx82YKUOOBjajbY6yct+NTwx8i31i1VAHx2cv6i2D7mr7xtTge4zbshr+RSo3kdd5+trF4pBaF5DqQR6v38udYSXplI/Sb/IxxtOH02KZBJe0OjjRUVWzcuFFLR6QXkBJzDZwI5kHkmKPmoiKMCjIV6vUcKy5gKRpp4JJ8xagubszrA6+NFxCGRbp5jvXzy6ZcZdrgpx2vP9z3K8htzgeVr2FFJNZm95YVgzs+oNV748YNQXUI5VkGkAnmFGWDOU5TqDDLvooAmVyTWFpgGjp/6aqaLSJhykkmv/WkG7G0HTLpliUWdhSXvfuPnxZVO40UB0+cdeu7/777rChVMKfUWrtdTEQCV20zV24VPT75VSuF+jLqyPhrABc9GpgEw7W4fRc1qeaKaMRPS0X0kVPyobWSwh5xyeUrv1QVhkxYKLaDH7gdgITTtM9XYg5kMyZM6vekKFUglzPnaWYOIE452NJNe8QrY7VxQSqCobsz3yvVB63V4m3iiEtchF+aEkqghLBo0aJWVEpne46ZKSWwdmKEAhjVpbxBlaMs3bBXvDd5sV/S1wg1261atn/+37ugzrgp7rlLE6SLVvUqiN9WbRdngzyaU2C65/BJcfHKValusBqVIUMGuWoy+FWqDz6y8qg8TFkk0nJMAkcXrtdVeGroJPn1epIkqnlDGaak9ZvXHxeVS+S3qyEB1ejySdCHcbuCEAfIX7SqW0H0a99Qq4npDV4ZB5XCVTybdinREZY9usejUpKuFkZjLpqbKGDzMuqU1F7JILp27apGweBelaL0SBMLG5UdQqlKxXVjvr7jZgsur29XIH/x89JNYtjkJdojMH3KoHYhWWCw7B6jdX6GldPQy4D7rbg6JVETLRVDlFksXrxYY4Je/3w2GLUYc46zygnbL6WYX77WSkRljdfOH/z3jBjw7XypxAxbQ0JQERWv1Ganhj6qSsn40ZNK2erQpf24eCOuqa8s8Y3giq1MoShNRhMTEyPfv1I6VUTfM26NMCUQzsIEAi3POCyp8PvGPREnFraH2mE+oApvfjnXp9JPzX8rhykm+BALi3l/7dKaSeVrj5a1obQM7rzEGWP8bF1wRyWlAdWtuEUw9awE/jZp0kSNih0HTmjxSEb6QvikarlpZ7Ju96FINinodaeDiuVlLC7+AWOqwovNa4n8OTLjw1VTExdmUdugtVeBU5IxYHAwycA8FsE0Um/o1o1qpHgYP3sVRMJBbGV80QGFKK00JaRvf79ApMJcfKdB+jQpxdPv/ig19OqzffV6a3EW8qdgwjUI7kxwME7PzTxWTzewbqCQjqJiFZZtjA4qVatlBxKuWCyv25J+9faDt8RUGchz+JOXKyJqvLtDF6ZCVNYMYtAz98NwPphTk/tgQIN9A+RGPBJMeqDNFHDrgwlc0kUa2D1vYDpS4YeF6wVNHO5UIH+xFB/r9OWbtUdsXf9ukSGdrqrRMgQYIblwia2CMSXxkpTPkWCKqRm53UKFk2cugGdgtsgCl8zliuhtm7hw7R05Hak9nQ4WhkMmLBKXr8TLRcjDfdfniaAqKU2CcRCfcKUkp6TCagO5wUqFLWCIVGmqei2cYZpCmnD05Hkz6Y6Mc+nbc4wuLymaNzus+/IE7Xn9YKTlvMWho5Ba61136Wr3Df9Av6BmiECYHdbmvru1mn9ZvkXaxWqJd2iEI8ryzdFi056j2hOOhW0NDcKDAaYtMjXYBsgNcCQY2+6FGUqVKqXlM5dc2sUwRci/NK9N6XQ8/LRkgxsDHH/1zgulhTCvzxeztQfLgp0Ld8OaL9GADmYfq3DVnW+9yOskmFxqRlXZyPR/wcNEGviFUTahwh6pMVdT7vzwgeNnxBKYm6owqlszN4ZVve5P2JXM5TaLODgBOMWySDC2hJcJ3DhuAanuQpA1pVbZgfzmwtYJFbgyolH3/xpQLTB04mLtsalXy4WldmLAScZGozkDbILhPmkbNIENKIZbJyIJNLW8t2xhrQnLN+11G0K1DHdw5Pjpc2LjniPaEw7o0ChRmmzuMFCBjgaMKYljx1nm4QijLeh1Y2kXGMvIf8l1KxZlW22Yt2Ynlvp29H8qkBJWcYO/XaA9c53yRRNs1kFKKByljRli9+7dWvmIcHSRIwcJxgdE+M3giapiP7EKm6OP+SXd5eqKIxSlovxl59zqwDZSI08lI8NURnKfV8a0aeRWYu615i4NPpsKpQol0DoP5VRWNOMsk5YKBtgmgRTGSMqxMuiGM8kibjJAAVJGqPdV+Pe0OyPO7uM2WwK303IvdCFsXc2eOb3cXUh7HjKNh7AJnkIwyh0chFPy/kj8I0GD9xSFIV9p+Z/ycldnnmyZPDYl9knjL3dsXE30HT8nQc9U9259BF+xYkV8wbGhjVYCCUbOTVaC5iAHncpN8pEE7nc24TpkBNbLZkcTiufLLtrfX1U8WL20T5uRk2cviP7fzBcrse9b1Xyb9YQrTin2w9h2MgTbT/wFc9ynZwc5JJkXfBTIb4xbj1VYt26dGmV4vZXgRjB0j1WiRAl5nXVnxN7lYxHc2+OkM+FDJgOhpE+bSvRuU09uSbUeyJ/fHJkziE+7PyqtCB/u+7U4B6cBAfazP9X4lwcVL/m4s8iSwdmpgX+FgBl1/678upX3mUI7etsyYIsVZzVyuWQl/POPvs7nsB5JMOUvh7EtI1umdHJPz3LsR+L+5YQCLdmWfNRJ5MuRKWL8zV9ju3skFvJelosUmnYQ5X5yjEimtvoKV7MJoPocmfQlOZfTDnuud1h9zBFmnxXhLx3vPfXUU3ZSJRhaL16/x46HM0DGLm+2zFqVebJnFItGvKClmRF2Jl2N7Dh4Qm6JoaOAfDmziArQvVBmYU5DM4d2FHW6jwmrCIHKvpWju5pNl/E5q3eIL+D9YifaT4ilA/6PnX45C0f50Q/yZi//2L81OZUpsGTJEulzUEnicGNb0JFgDigX3bbEkoMmn2B2snpPqMLsHjKtKujL/vgrzDt9GZwEzlotaOObMkWyOIdE8Z8deQU+ywedmooHqpeMvxmhDzo/LF4YPlUyzNqFEET4olrUKe8mvV6KPeAvjfxF7q/myJIDz07BHHdwxpy/BPNUvi6QDR6W6SpcUrTZarq3MMshg63C+PHj1SjDS9UEtsAebnjBXIOXzJ9DDn/J8QLCDXygzBmcXWVYbeEOwldgzkgzUotBt7wx0RVI2jQp4DUqi/T8dAB5Sfh9xs8W2w9UE91hI2tBLQgHSxbMJfZjyRpq4HNR2KbCgrW7RS+4I+FwMhb7xM09SlwZ1nv5szgPGS5MyzrPc+jEGbU4/8Koq5Khi1q0aJF573/VBBLMfjUB3i7VqFxWR06C4RJUujkBl8gd3/8JfuJgrwPOzSIWNe+MdzqIQrmyaiuq8zBvfG74FIxEq8Tj2CiWFzayFrRrWBm7D+a5MYHW9WD95syi8w0st+8Xc+TIMeGNtqJiMXezBcpjuHGeQIIrAzdlKmyNPq5G/Qqb4gre5MC/aNtlyfReAtpzFNx38j4NKCyKCKBjaEBkwvN44c36fSNOY5j2NEVlwAqqMHzRWctvlsHRJTNWIz8PaCdywNFgb2ydUaFxjVJqNCRhTok1y2oWJWLl1v1yTxWJYuyMPxzr7fbJDLli5UVOadXL6MLMLfsgzHS80zmR7ahVroh2cevWraZKgNdtoR0jJBjChtgfnMIAd+X0Oq1CaQzVeHfhB7zgmPPSDMOue/Ki9eLvndg47kM3EHPustyCat9oBMgY/4VyKNCzgKsmTl+hBI4OpuT6NzC51tteBRvlpljqb4C+CG5XQUz75M7HrZBuW8CPoFQBfYTZvv9f7eOw8nr65fPToaIK7733nhplmAIZDig2WJ8vybqhlTplyhTpnciKN6xcQmzeC+MdNDScwOpizl/UqswJGYo/zaBm93XshsyIraDkT1R4FRvR6TWTRHcaBElCsaBkgZxw3uguSbauB+M3ypiSKCqwNMb8Do7GnBMd3/tR9jdHE9ObKJ+fq0UVTpwJzPqQspeyhXWT1+nTp6tFMvyVmWARzGr1AnUJAwYMsJPqVCgiPp663K8XZd8UhADJM+acRuAiC5g9fqX+EA2noC4f/yJdpd6DjWAU0K3YvM92fcpO24Qvma5ULaiIpTc9VnEbaagAzdfAyWTanmodHtQUtLEwWhX422b2n2nySgs7uus3YL4Rt6ekbeqFbdu0qCiWL0dEpiQOvWeMKYk6Imv4VtvsKcxRhJvdpsOkkysRCr8sEQHfxcJ1u7Vbq8CbFfOEDlxuXrFyYcQJZGFhSoU5dam8mq+2UwbUqn4FLdvPP/9sM9XKBV2KiwvWZ7RPySQPYlDjDEdqsxgdQKsgOXvzE1UzeAjTkN0iFDXLGvAMKvDLc8qn5klMmC925yF7jSGLqoD9Vv5+kZyiTIOyY1hyB9Jmyqger1tRewx1Rom78AN+3b4ci2B4YatVAs3z9u/fb0Xlbyg8ImkVeIhcj1tKWpfTK/yGlZaYX/Ir6ohCYZmpjkhM+ea95FXWgdlWoR7tfTj/+gH8VsjHqbDz4L9q1Ge4oGH/wuX6zp07zfvGmAmMWwTDsOaSyPQY/QDcd3LuCzeYOpNYeUvwGkIHhObW0wK5svj7/gLuDk6D+46d0u6jLMhierULDhG+A9Mk84iD2zOHW2USJciPwQ+NCjhMRI1a4U1WQP1VCWaxeoE+eVWga/JA5ln13sSEzTrlpjo/v0Z/6qXsg77yVMht2BCr14IRvuxgjxyVTR81PNYDipF8nJKBZyT4C1xxPQUBpQrdu3dXowxzEeSmsuYFlWA0TtdkfPPhK2BlYQdjMEkRZBUFCeb0BX0llhuGSxBThBQoX1GB3i1paecL2CwuvVW4iTMP/IUysMxTNybSdvevv/4yb+9nJlhxlQL2I9Gu2WGbgUc1vFVYKH6TGb1zFb7ghMvosURUzFXUIagZVOAIY45s6vXEhsn4joeSVIX/e6iGXysdTmkX4JtOhczpdb2Sek0N0wTiqUa6sI5nDzjASoc0maQSDIl3uZWRppp//vmnFZW/1UsXlNpeLTHEEZP7vwxJdFABb+AIlt0q8GwArkZCBST3v3fpjG8qCBrzZI+XB3mqm7zOidP6FJQnhy7E83QvFwwP1yyjXe7UqZMWR2QN0KMUUCUY3vgT/1kwduxYKyh/W9QtLzXXWmKII+Y0KA2FglgnXx5OP9NKpOQ32J6etAoQ4ci244C+unmmcVV5tI6ZV41zhPnXkOoWz5vT5yqLH0D9SsXUoqT4xGF11E3LZERMgvldvf7f/2qabUFpqfkC1fzBDvMb58ljKkjdEt9yEMFcJXFZHcoRhk3ntDQQfvlUaF2/oteDsmRe3HfSYHK5yvLV3kuYjp5rUkOtTnz/vXRbp6UhQv2RRzAJJlrNeeaMPrfzmillVPMHO8xOyGns6jtpfF3BqNN0Z2Iu5YNRh1MZm7G5ngbtKtxXqbjXUZzfygmYdKiQA2ckeWsz7ymJg8pKQU9mAWUvDkcucobRGSTrhrhfk2A4d+2y8pCP2bEDmlQFKpfM67VxStbEBzHEmLYjodjrbe5MYOcHeRBz7Atuh5m4wDbIl3l4gARND7yBuU2Yo5XJ66n3X4as6ekHdGaX50Eauxt5i9fpiBlMgmHaV/xnwejRo62g/G0FkbI/yz/tpgRGuFKhEE2FaBy0GcyXyVeT0zADPXf5ikc7G7UtwQiP+Hmp1p9kuDn1e6MZCt9M8OaOlRaIprDOYXThYKHrLMxKEHcimFlqvgkTJmjzI/e/UHYRLqC/fRW2HziOaBBJBm8mN3YNqBBrmBXEOtTCjTA1zLTvUeHNdg2wO8BNjWNn4Qh08qy+UlJNNOyMCHC0bIPjDlX4999/5eHoahrCXYG2WMW4ZkedCCbavooATTZN5zKhloRa9fPrr4AzFFWgDS9XCsECroaK4VhfFY7HXAgmSapFu4U5lfQcPVP7KAvFHTnscWLChcOGDW8BGH45jUrcMdEBqy8VeOquASSU74w0x6gTwXBo0jRRmzbpaoXa5Ytow6hjyUFITAFDkWwZ02sl8aznYAIVj9zYpsK+MJ8wdwF7gXjCrQr9cELsFbxsR8AHs++YbnsdO0q6k1iTe8pofCAtKvv27WsWO9tM8BR3IhjmHaXe8O6776pR0bpeRXD37o3TMgUhQlmF+anTFWkwgYIwUzfDUSz0Txf/FKngkaHzR9PiExAqBI1yA1g6OgHbzD3iKsTa1KgpQhqMdYEzaBV+/fVXNcowR5c2ZqKnuCeC+UW9gSab6rRUAsuzzOnjzRrVvMEMO1miuVFQIivMlzMTjKvjn4UHhx03JL+JrMKv289evCzW7jqs5e3XvhGsA515mdOmJaLDVlv61SkO4zcVOnfurEYZ3gvU1+lmDiXuiWA0ESTlIeZROLQHdZozlbITH3T8zB0TE1yX6TuPTiB9LWsTXJmXGznKdP9Et6mlE+e2YFjd+hkDr0lI5nYceg57vW19rcYFCxYI7p034DEj7jXqiWAovFmo3jljxgw1KprC20ConSo7vbhgkgvtYFv+p4L2XDTjDKUBlVaZETl/6ZpYhPpVeLV1XTf38Zwvrc16Vl5zqqazRPMQjx49eljZrV8yThusiD+/ngiG976tFjB48GA1KshM0dQvlMAloelwOKvD0JvQNqROldzN+v6PzdF+aY0TWqe3+7jEfuWzWdozp8OZA73a1NPS+NGox/+wzNMXLtvsHrfO8ORaFX7//XfBfUcGdDHiPqPeCEYzkuAWWnVaoiymZH5dRuKztgAzcITZfVgfQksG8RzEzk1rabqx6KMxcl92gM0ManYusycv1qW/T99fRd/Qh34pgS3MKhxSrO541hK3y6jQq1cvNcow2Y6pZqKvuDeCISOkrfU2bNBHr8bY0O4kdfRVaSDX58KfnQrtIeL2pWhT83sK09K+bSNdoPXVnDVh2YzvqU1MJ8EMhav4sxgxVBj2QpN422PkKV8kj3oZH9ZJOTKSd3nv+Ye0awsXLgzISEq72Yh4IxhmHaTmNy3LH61dPqTyGGrGeYCmCvXvLhYUgqEsKROcJalA/sWbTkbNG8owpbYf/rxMq6IunpvCOTIBZJBNrxbcrM9rDaqUEKaRt4MagAPBOK0CPyO+COZbtRxy2apLM+5PpuieDQ0VHDlxzq3o8jikwm3l4JbLcwJHxWGdmmgZpuHEkPNY2t4qwGmJU6QKQ//vQbk6yp9LN7QCqydVCbRNfvvZB9RbxC+//OJ06v1bWqYAIr4IhmJVrRdNW1/6ZgvlaonTz9SlG7VHGg13Y4HYsWo3IxIFE0zTvwod+PCsxVsF6CrunYmLtOaQN6HM6NkHq2npSzf8Ix0/PvdwDbfn6tmzp5YXEQp7EjS6sCBfBEMp4MfMaMHQoUOtoPxtDuNlHgscKqDB8sdTV2jFZ8Hux3vuKpQgeQkJ8MMuTbXy1sFc8hCcEN1qsBQOrM1j/Ma92ko8gj5XYeT0P6THdtXfDa+PGTNG7Nu3T83K8GtmQiBxXwTDskghtvhj2rRp2rREexWu+cGHhQzIoP6144BW/mdwupOQ3ZjcGGcyjO/+sBhnHN46o4v1oNzl+anh/sP0HcPpaDdcm43u0dzNr02fPn2soqxfriB+sCIJ+fWHYKiM1KalNWvWaHU9Dt1SsI5h0QqOi9BAqOtIXXDIS1MGtg+43kdqldXkLNyKuxtbV0NI706P5HcaV4nUbXmCD2FPQyeRDaqU1LJQBeDg66eTlikBEX8IhsWOVMt2EuI5SWXVexIbpgCPI4EKXA2M7/WY4Ev354XT8KtP2/vUIsQIrEbCY1+nVet3hM6c+sA7lROwz7+Y9af8cNTnp2nt559/bt7yOxKWmImBxv0lmIEo2GZUuK7nAQYWUEz9YPVSVjQkv5zyuHKINaCKr4K8zE8D2snTTdROi88RH+JyVVU08srcNTukBX98rlsvRNvfSXCkZMLkRRvE4zj/kTonFRo2bKhGrXB7K5CYX38J5goq0USus2bN0urlBilqekMJlD88MWiidAKk1sOzIJd/0kUeaRfr+kK9Ghsms9vO2MS1C1MRfcbc6kDzyw8mL3FzdPRkw0picMcHtObPnj1b/P3331oaIly46Exg7KGf9yOdPCqHMPIZXI6uBo4B3gV0A18fpXrD84jYy7ECBQqIAwf0NjR4dZybhFItIHjhZGLB8Odhx+K+448bxN6ftASHnx+WSsTU0M+QY+fw/eenL8F1aQq7GZ0+nCaZafJItwNkw+pwPp7bG2TOnNmJdyEB0Dg6HzBP3C/jvoCifQ5XJ62MgfYUmV9bPLpx40ZRoUIFqywxbdlmMRgHj6cM8R5svmA2fOWnXTVdkN0QBLibcdW2/eJPOBzchVUE+ZzZ7z2rZhH3dB0tboI3speA2tVbL0JlbNXS+cUXWFo7QZs2bcSPP/7odCkxaTTI4TpeitwDJZgVuPFeq/ann35afPvtt1ZU+o2r9uKoOF+ydnLQA9w2sXhEJze3F4FUdAqbwUjcJL5N8N9HP7eeDKkDKTeUebnrk9tdv379cTf/dNxQX7169VBVz2VadmDAu9rJ2e5QW0WOnMOgBdSB/LBwnRUN+u9FmGj+9u6zgobSKnB6LFiwoJoUUJgCso+mLMOZinvcbE0CKihEmWmuOrhjY9HYw+IiOjpaDBo0SKoCTF/LapNSwpt43rx55cxQrVo1QeQskSdPHsiiUomjR4+KDz/8UKJ6H8I9gKMCHWFYxkFgfgYIw4YNE717946N4D8PRq/V7VOYcLrzF3amBAZoJMQVken9cebMmaJZs2aicuXKgsKqxx57TKQAg5wQ4LTa/+t5txTR0OPUjKEd3ARznp4vJiZGehAj4ZDZT5MmjciZM6c8zzN7dg4UvoGb9MeNs1lW3rAHWDwhBNMFN37KEgg8I1K1k2HaG+N/E/P+2slg0IC7/T5+qRkMo4trZa5cuVLce689S9rX6tevLxo0aCAqVaokv56SJUuKrFmz2te9BSbMXyuGYVXi5K3S232huEb+ahmOxwm2qzZfbSXRORBXgpcHZ1ChPQ+REp9/Pp5751aQWi+NFtzFFwyg0O7lx+uIDg/oSjd6HuDB7JZLdU910YUpzwDKkEGXV/y986DUelczjghkOU8OnSR2Gt4VPJUfqnRq1V9+/D/iGZy2pgK12BwJZ/25TXR+pKbgJv5gw7Fjx+SHZpSbYIKh5Le7VVju3Lnl3GfF+TsQJ57xgRILlM62guqBe45VoOCQ9epHDqo5YsNkankGVNGiRbWLQ2Ck9MOCtUhLhvMGMokZQzrYrtmZkYxw60ETIsoI0+Z49ZiXtNHl1xVbBR1T89AOPtt1EFU6MMIdYFj2n4rFRFFsyuPBY56AZZ7CrsnjcGpAHdSa7QdgSFYZh1Tk025xmJI4SGRNyJRkFXwVAbtl9CWjbmHgMrZqJ6yYvDTeKsjTL5eR9Ms/pmcLLQsPgeL04uQlS8uICF1atGvXTkvmlMM9zZbrEnZ84dxZpYhdzVin+1g4TL6mJoU1zL1J0wY/bdfJM6AqvzDS0YMGeRUegXMDv7lgp0TjMJ6rQKD5yTnY+lyA9/MzOJ/B8n1D1QoPwzC9inN0yZ8/v7a1CMV8Auzur6SX9ZrwnZrw1lu6TQ4t7wc+0yhBJggslx1QFAdmmsTCdAoN/SEWMuQmsVCgR/7EIharLorft+8/rj6SqF2hiBYPd6QUznhQYQ9Wcp74KhI9P85MsJfhKEIvF1z5EXnsD13kczRKA90UR6eXWtwrhZ8msVBhydFY3YcW14YR/E0MwZBpsXdZcb+LqU7nVOJ0xEpcA7z+ZIUGduogd/UHeRaHvTV2WdmyZRPNmzcX/ErU1Rsz8KCqJ4f84NjpHNb3HDlll8MA3ciTQCMBlExzN6MKR06d1yTV6jVvYT4C+SHycs1rlxVrcGxgtxa13W45fPiwyJIFZ0tdot2cBmRB9jElMQTDnrRXSyxs+PDhms8R2sfOfOeZeONlZvIDaDQ1652ObjmbNGmi+avhV8XlYo0aNcTAgQMlr0LehmaJUVFR2v3clN7wlXEeeRLuYzaP/Q21bkxroEPE9JJBQzUuADxZBvCFkMA55ch8+KViuEKx3PLEuVXghwZ2uN+hJiHobYzTkMMHEo0belo3JdZqiAU9C8zEAjmMNWrUSCxdupRRCVkypBODoCB7+9uFkI34Zpmu4RS1nwc8hW0VNnsky+nXr5+YMyf2XOZSpUpJ70mUNKdN61vecwYW+E36fCUPb3AaL/gF1ipfWFQpZYuXZJ0ckcgURwLYJp75pEJTODRMj31Ks1dtx1QTA4fU0NSAKNhEfpy0i8mbPROm8hw4C6mwNGwzN7yp5TF88uRJ0apVK8GzHh2ABtVUC9iQWIJhQZQAfmWVuGzZMvHTTz+J1q1bW0miJc43XLVlv5i/dpdXq3x6UhiOsxfNuZtOpmkami9fPkFPEg7yAbsuNcCvjCeTdBk5XU6NTsTC/JmwT3zcy4+pt8qw9NESGXqRooLshlcJNoob9D1t0nd7AC8JnHY+/vhj8cYbb3jKdRgXigA1rj8xU5JV0dcIcH1qQ/v27bWpiRdopc9jdLjycQIK5rh0boyDylXgYV/8Aij2P3TokE9iIZHw/ICxv64U1TqPwhJ0ppyGnGrl8EvmfN4Hz2P0c+8KtilC9CJoSmrauaj9ktAwpb/9+/eXAlcvxDIT5XO41YiFdQZjhGE5XPfuY4BA32lcyRw/rq86Rr3UXEycv04M/2kpGDDmjH0d3AEw/rVWogZcdalAvUb58uWlvIGacSfgkpFyheUwmJ62bIvYuOcwSk0m525v5weRD+CJ8N/3bYvynUrGczi4eHfOGfxUHnBq+vcjgZNv8xeYn++CfB3Pjnj//fflYsDL/SQQWsjP85QnWASzHxV0Bn5mVUS3WFRqmc6Inrq/siDy/CIuceti1OE5BiZweUclGYFKMVOsTyv/54b/LB3r0MCIxlWEtHG8j9OIwuvoQwmjujUXdcoXiY14+E8mk6/HU1kebgtKMtXCOYyjhqneoDUd9WbFihWTDD/1RJR0Uz1DfuTIkSOCh03QKpJnkDsc+unUPj4ijagedrqopvlPrupdnsMcykihNtx9991i/fr1dtyfAE8GoxRXfVh2BDWqKnAVM2zSYjEPuyMv064XX5+0xTGeylpZFIdc5w14dqruoApguZQaU5trQY/Rvwpuzo8EwZD5X/NZN3sZTaJIqELVeh4Pvxy66wDPebiuJRtdq11LaOQobsyt3kzzB05P/Bp8AdX0FByZwLQ9e6gw9Qx0ZkgLe56hSNNLbgbjoRpF82bzqT1v0aKFoDj8wQcftCvoPmqGPKQzEgTD1c3yUdTzxgJHbFNUYF1L4O9E3Pci0C9Csepw5/SsKwn/5fxiC/RYDBV/6dKlcxPsqVVwSd62bVtHYmG+vXv3inr16qm3uIXpeqwiTjd7sEZpnEldUTyEX+6Z8mZqQUKmLIeyG059KtxUI2EM8yumWkAFkx9Ur/kZpjTuO2AJIOdv6ksCIhbkDxrTy7IsYCNyAI8BbSEJGTCK6keMGCFXPHz5hQoVErt27ZLzLedfB3G0Vab8pXwnderUctn+6KOPatcCjZCImzZtKpYvX24Lq+yDOeMKY5sjBYVxlKAKHGH8BK40OMqvAC4E/gE8CSRDm+gHip+wUVoQ4SzK4ifyJ7CSWi75BI4WRD+AzDSXTvbUSS+QnD4osOP0QfF/rVq1/CgKu/FwNCH36/B8Zn6xvswiPElU/aosEZmoQOQh7SoY/cWXnxrI92f1DYmByIEx0YSBMhwhVATDyrh/ozKwA/AbYKDwJm54F8ie4xeiAV8+pxEimUFOebR3obwmV65ccnohcXHkonkD81NY5YtI1ErUg6jU9FCHb8BDaVFjhDFOHaEImqBN/bFJof0fSoKxWv4tAtOB/YCvWYlefr/Gte7A83F5qBHk1MZynohL0344lXFFRaTSMaFg2taEeveDp3bywIoo4yBzw91Y2AnFams4CIZ1cYrqDewP5BTTEFgXyNHjNPAv4FzgXuAFoAkcrdoAewG/AfL+YAGHd8ntmjwUBX8hG9u9tJ4CQ/PkWOOQkEjx4yFher10hdzUvwsZiLaQz9sNxrWDiDcCkqm+D9gVSMILZLXHzp4E/AS4Gkg+qQDQjemO1AjD09moSFTBOBb6hnotnOFwjTDBfibyNFPikMQSFYfF8VsImBPIaYwDBOcoKtK2xYW5ilA73B7eTf4mRcpA6BClBgli94DHy6w41Ro2KrR2jAjcrgSjdhZHDC4jic4KJzW3e9gmGJOHsdQN7reENsWUwZhbklE7RRcRgch8QhF5VI+V2l+rafaZXh7l5/G+kFygblE9OY2VUEtvQIwRD1s0iWCglLZ62ySYWI/g4WV7aS1n+tilj2QDThjxsEWTCEYhGHNDHkeYcAMJpng+smDxYKyQeGFn/NXwhpIIRhEKqtpxvoZInDlwDZJw05KfRmQGkIGPCCQRjOLt3PQJlwFbNsI7IcUabZlLaurbDNhqxMMWTSIYhWDM7SvcImNt+grXG+GoZmrXDRkMm+JGQeFqXxLBxB7SIPubeicVKA8xZTPq9VCEaaKhWvpTS220gUx60iopFJ3vZ5n2mlV19Mh76TGBisBwgunKxFA6sikRIxZWnjTCQMzBjiCYjni4LTVcZ3THtkAInqOgAjXtBkRsSc12JBGM4l3SfUpKFVam9waMzsthe64KmzdvVqMMuyWYGUIZTyKYWM9Kso9N0wjaBKfEtt1wAbfMmHYwDttrZoarPU71JBFMbK9c4g/diKj6pMxwiOS0wc2pI4ORRrMGOiFQwbCD4SWagUQMkggmtuvPWG9AHWVILME8Y9Kqw9Nv1kxpNd8vXB0Zikcu45J4GE8dGMZ0m2C4/0kFeusM16RUrVRBbe+5w36u7WrbIhFOGmFie32H1fkHD9JGKx7K8vS3+GjIQjQ4b1annFa+6gUj7gINvyIKSQQT2/2zrbdgHoR6D/Z7h2NpzcM97ykjDf+spojffvvNDscFvjQTwh1PIpjYHqeRugTzqy5dMAoezm0LCCtb0H+L41hh81hBw2fLOlR6OegVB1hgEsHEdhjNNomCB4KrUDAqi5u5gXo9GGHu/X6/k74Pnj5xuGpT4HMlHLFgEsHEd/1KBrlzYO5cfeU6AM4dufUjVMDTeU0J70cffaRWx5EliWDUHrkFwsOtNhgvC35rCsE2hhsNgw8X4Qp1xpBntILpdGDFihVq2hdqJJLhcK0YI/mMgdRNGQe3sMjTWLn32wIeodOi/3eaJtm6ltBfuiiZMbQjprzsWhFVqlQR69aRZbGBpn+2sbqdGoFA0pSkd/ocK9qlSxcrKH9pZ9vu/ipB27XMKW7JyM5uxMKjgw1i6YcG3BLEwo5IGmEkOdj/yiBkmz9yWjAPvug+egbco0VrAjb7bh8BOoO4eOWq9JH7QtN7pFdP9Rb6xqFnKcVrxH5cL6zmiXQ4iWDc38DfSMJQgt1w8Bvj5GZjwoJ14u3vFvh1+AY10Bcx9RTDtPNKq7o4D6Co47RGp8okFmNlRALewbbcKpBEMO5v4j4kLbKSa9asKXjEjgn0kfvz4o1iIk57pWt2yxU9RwfuLSqQK6uoe3dR8fA9d8l9Rt5OduF5Ty1bttQUn6jvSeAks96k+K3ZAwvQLGoEJN53332gA88AwZ4LnjxdOFzMhcMfXDhqz3Nm4wqcHNr1WPXhl44LkuA26gGulLQXiTMOXDB9MF53wqJwheqCPz0XfP5pdcTV2e026qekpio98EDcC7RfKnzguXBqS8KoBHdNmDDBVbVqVRe8fdplGnXQM0US3MY98ATa7vZycWyh66GHHnJNmTLFhaPuHAkIZhIuHAnseu6551xlypRxwX+eWzlK2eSZ9O2Ot3Gn/a83vYnyYh1fOtyluXLkyOGCW1QXXMy6OBL5uifuOu1bagOT4A7rgbx4Hsrq/SUEb/molPoWWBWYBHd4D/wHzzcP6I0gnK7txj3UVdUD3taijNu68ej8SEFGVNwAeC+wPLAoMDOQxuT0dkVh2ybgeiCVQk5++5B8+8H/A7w+z7wqrt8aAAAAAElFTkSuQmCC;" parent="1" vertex="1">
          <mxGeometry x="403.38" y="100" width="53.24" height="54" as="geometry" />
        </mxCell>
        <mxCell id="4LUnRma8o_YQ2aAeQ-uo-15" value="RAW" style="rounded=1;whiteSpace=wrap;html=1;" parent="1" vertex="1">
          <mxGeometry x="260" y="144" width="100" height="30" as="geometry" />
        </mxCell>
        <mxCell id="4LUnRma8o_YQ2aAeQ-uo-17" value="" style="shape=image;verticalLabelPosition=bottom;labelBackgroundColor=default;verticalAlign=top;aspect=fixed;imageAspect=0;image=data:image/png,iVBORw0KGgoAAAANSUhEUgAAAGQAAABkCAYAAABw4pVUAAAAAXNSR0IArs4c6QAAAIRlWElmTU0AKgAAAAgABQESAAMAAAABAAEAAAEaAAUAAAABAAAASgEbAAUAAAABAAAAUgEoAAMAAAABAAIAAIdpAAQAAAABAAAAWgAAAAAAAACQAAAAAQAAAJAAAAABAAOgAQADAAAAAQABAACgAgAEAAAAAQAAAGSgAwAEAAAAAQAAAGQAAAAAPYM/1AAAAAlwSFlzAAAWJQAAFiUBSVIk8AAAH/ZJREFUeAHtXQnUJVVxvt3v/css7DtM2FEMi8gAOmBkVBTlYBKJDIoLJEaMR2JiALfE458TNYIoxiRGyGLUmBgmMUHjvjCyijDILjuybxJgtn973Tdf1a2qru7X758BZh4kJxf+vnWrvvrq3rq9v+6eEP6/PKcykD2nehNitvfvf3t0i/kj493OuvGQ55vnMdsuy8OusYy7l+XsoqwMO4duvlWMYacQ4/YhlgtRdzCOmZBnj+ch3A/bI6EsH83y/J4Ywj1lKO7MsvBQtxh7IsvXTHbHd55cMbF0OoQM5udWeU5MyNKJie50WLx3VnQPirE8MGThBbEs9sizbJdYltuGvIOcI3exSHUgWXKpNeeVdDIkVBlmgf4DJ+HXQEWTdRdAt8J6NSb6ulXj5Y03Tiybea5My7M6IUsnLhyfKde+sozhLVlZHhhDtgvStxDJpxlAjiKlPhVLvGmqSWEE9GZSoU2HIYMWcdZii3oIjZuzrLN8JsQLVp657EkN92zVz9qELHn/Nw8IY52/Rgd+rSywgsoE+KRqWpONUmQawWva2hLfpiMKx0F8+D/rdLE1xZ9jazrjsjOXfVNZn4166BNyxMQFO8fYfRf2Pqdh/z+Pdyc6ckuWbBmcO02g1u1JTRSKQa1iJbROhgFp95ZlvVDGf8263TMX3RluWr58WaFdG1aNY+DwyosnvrV5LEc+HXvlGbHszT0Z3C3NqtZQ2qQRoC3xg3SOw/ycDseZWBRdrApvjkXvi/fsXr6SuzDkxfAmZGIiz2P4SlmUy7BVjNXGaUl2W4bTGdZ0pBmUeEVLsqlyea/8vBKyNmliyvKgLJR/f9ipX9pD2YZVD21ClvQOfUcWs2OxGjZ2k5SJrIdT1PuxL/8Z/lZmnexunBxN1ZJQmwxYNIEmuKSajhgMmGTfJDPZTSdCLDNsLYvysc73Dj3j/B0ZNqTFUCbk0DO+uSP20CeXvdnGsCgB2bq80/lbdOQNM5OrX722l70qj+WxeZ6fhd36I+xQmwxKoGbQ1SpW2XU4YiE/qQ2jOtVTLSXF2LsTe2fgbLCr6k1dDyVQd7x4foz5IslIGlMacIHE/3OvmPnwT//8uMfcYB9fPPGNO0dmYsSl2wewI5NdXFsCW3SWeGX0mDYdOzQmEM2yhwN955g1a+79ArxuUM9NWQ9lC+lkI1vj2mKeDUTX8Cw8UJblPzYmg2ErJ163LobJv0FGHkx+PqmSQFvrCaG6FplNtFAMahUrgRxdSRgc73YaDyMHwtDY1TroRhSHMiFFiTU94GqZik4GJSLLH50dy29Jhv7lFR8/8WGk4eds6UtgSljyMqPjJ4tinN10YueKcG0YXKrGuLBX9vbBbotuz2zyMpQJ4VHQeG3Q6WwKV8vlaJiUmWofKxJC90vE6GoVdQ0njOEITm2pxbvSOX3NR/TODz2luwZbzHvs+v9LE0LXVzxKrk0q4zZhamw3SkNbOeJ9F2xWluH5yWZeFZVyqslIoGCdN6iOQKJfz2RoXFop7tlmR09mkTa2MJQtJIu4Z5vhKgTFRoVkxFDuEvPwZkp8c2D7TZw/WnTLk7Gr28V5OdGYPGuSvYmJoTCdCY2QivH2Nl3DbSM3hzIhOKunyy3+L+VHBh3DKCbl7b1u+cHF7z9/Vx3bUe///habTXbeGYridHjOT3pKjibL/J2OUISROglOp3pSEU44GOf9CEdFdak1rOVQTnvTYCQBtUTAUsYtcWr7RyP56BuX/PEFdFt8Zk1v1b5IyE6YjIWWCM2fJZospkyyb7IjFKYTweI7fzYZ0HGpbignWNzjIU0IjiE0NkuGDJQrPsCPhbK3B36ESrcqRM89JEeBO8FxEUoxBnQ6sVNVK4Llqs3P6+Y876ixPtPGUHZZgedDB6g1dd3L0mSV6lGrWAlPfzJshZC01WJJf/p02IgFPoxqSFsIhsKjkuw2B11LlGBsrZdEWaV2UTS5Wv0aPhvKpf3CPZxhleFsIbjPix+AXFacWBup6lGrWAlAmjLJ3GzTEanofVhSUxno57jEL2mGt40MZQvBzcKyzPIpnMJOcjJshcNwacS8BrLA+aIfWKvnDwjcxJFKMbi8TBdvIxCEmbjaivDUTKpzPrXJIPBw1luKNJQJKUZHrs2K3ul5meMmIV0kSt6oB7zy0cLpSD+wkD+KVCTG2FuM8+q3I6U4K5PE1rYM1TGaFlKgZ5PYSVubDNGXG9o35X369VAm5IqJY+5DF5c//W7O7bnk9H9ZE/PyLTiFTqfJG3MyaE7w7NGwylAmRAbjVsONPLwcM4BHV7hs7MngTajaQuJtrx0LnZEtQz6d9mPrGmOhy1jSbT5/Jtzz0Lqw5PIp7JE3eOxPaUKOP//8zv3XLlhU5tmiUBZbY98/gmM17bmj34VQF/ELIDpR7VfwnFU1KgJIyXAnWGWqcTHYilMuvQWjbfYpysPQg9HWYTO7DwG5qZMuJJRgmxjt5Ejn4DBbfCQU3S159+YzSDxTOLjhDCasm3osbLvF7eH2Y66KtxeXh72+e8eGTIyn05B99eJTzh3pbr/zq+67Pn8zNt/98zLgycFyHKtlh39C0rXTPHGYdXORMoCOylglI4zmB+CcX1JiF6HTUpsv8OI+TIK7iYtxFMei6vihgfqSCkVTt97JIAd2SmHzuDnaL0I8PDXp9F6mA2MaP1bWYhXG8otw+2u+FB+ZOi/bfsWaRNS+nHtC8GDC4TOHHogb0H+FNfOIssBPsLj9mrqB5LCAhXVmUAcJox1QoU0HjHIxrA2DwSqFCuqjIahWf9MplzlbrKQRPVeK0dpINNHmmyweB9maWAnLsAUwLwwj4VPhidGXxwded0K28zeaOzoLMPB8Dj/ILDy8POS92Aa+jd3NEWUPD7NhMrQDVUyVtAailiDozaRCm26QH/nM4deMRViGqw/1uEUnfgklWK5E1pjaJBotPibJhplDnuGt5tiwevrH8bajD4ab7gOUlevWCVky8Z2tZ3qTn41F/CjuuO7ICbZOYMtQCqdjFRlMR5pGBxVUEbAmqU3p/Np0hBZ9M5aZ2vycTvySRrnM2fGTbq7iOFvHSr4OU2BSeuXiUMRPhttfu2cbc9+ELHnv+fNCUf5pGWffRscJdrKBzzEZCehioCPWFxVadGQyfnJXjPp4nchcNexmaui56XRPaTLIz/lSDC3EY6YWmW0C8HKJLaNXviLMzJyhVL7um5Bs4YIT8LTFSQiWfrK0ZMlkELnTMVlNRxoouBMiK6hP5+0iM8aAUEK2pggW3/mzyYDOz+nEL2lEz5Vi2nSgsl01xUNpxlf31r6yA7vZONg/+514/SuPTYZqWZuQpRPfWoSzng/BMf2CZ4HdllGxViymIxV65zvIqBYdYYy/6cdOBOjnqvkIjuPxolI0deKXUIKtYebQaXf6aviImxOAauFq4so4Ekayz8SrX7udp60mBGdU00U4E7upffh+hg3cTYbTMQkFMZ3IzcBtSTVnFshRxsCEolQdNYXUx2KdYsTOni06+BEioQTLlcjG72KRjswcs0oTh+CF2L3MdLzQYAkuKlNSm3jLuFcYmz4pgdLSIh1evHhx3u2eyEBHUIkqaU0E65NhN4gJqTPWC49Rpdc5PzVrzSZvVz+nk8lQF65rfoKt6WpoNPTs0ukthAmV0VQQvEwIbouyh7oMx8Wrlm6rzjwh9AYTLrV/r5jB47S8RphnIphTJ9hmYIrcp6MOmZIagiGd6lUnvFRRMT/BMlx9GOC42IN9KkSbn1i5qpD9KyVuXd54k5Diiq/WF+qbmGw81DZlJbfHwVbSeYky8IRMT++/Nw5ch1UHr5ZNXAM0SQd1wvojAlU2EAoPhWG0O14nRvKp+SXXurP6iQ/Tu12tBmKzYqSu6dhRO8OBcB+kyEO+brv9mptJ0x9t42ramEoXid/GFLcOeXxJvPH4UTLwhOT52GLck9hdkI5XiFsHRGjYFWIC6VSptWBTAOdHdsWgVlEF41F/xRiwwUU4FPhVCJG4Um2bLvlVjgmD5XTezR9ZqvutoqScpYs6hnguWLT02QRHdj8uvL2EY8mhoXhwAZnypRNfGC+zbDEuHHGfsmUgVQ+JiXyqYk0VUKtYCfUOkJ4xBgSf6oja66tQLA30cz7PZDIsnPBx4uJa3Be9b2JiIh1I8g4lbqy9m+pHRC0yq+t9Fdi+oTuKe2SYkN7UdvOyWO4PgupJNptBR2o6ZgVciV2tonUGCsOpn9RUcSGMk0kkH/Mjo2IM2K6DT4UQiSvVDtBZLA5OC4uPe3iP4WWR21g1gT3KbLE9rrR55bV+sX8Ldy12xUlc1fi4tQhvw+xGUj47nmPGs72qu65C7IbGgdmPFrArxIQWnWHUUTHeoDrh5aphN1NDz02ne1qTAXJHYQ2bIOyZ8nDNopdtxRMSjj8eu5dsL+yw3E1ZR9Dskyc3TorpfAiTIcoIbkCi5EUxux0mA49rohjQOZiOEdZnJzjR+fnOkOxNKZjT9RklGPWpEpOkXM7Q7CMB2awYqWs6AyVaC6Q+SE6GA3rMPr98mbz8Ofn4POToEMtTBW3Eo/jO6GWLI/EJRve4yt5i0nS7vbAHIuNBNSWQmivVOWcSjRR2g5hQ7wwB2OTspvNcRKsYqQf6KS75VK02vzadj+X6YPGx0mIysN6efflfnnIRIbjMy/bA2ry4Ot9q4WaV6MnJcdZknwPKfZYdQfAufsXaq9rzOqKURcKgQG8mE/p1PnifHyvaufr8EswFcH4+vpO1g6xSvdQ1HfVD7U72faBf/LLwnzEs/HgN3M3eBlfs4p3/XNye0/uQbBQqxz2pN/Qa8J5p5gTBlaHh6GRjgc7UJhCfK4rxdtURTPRt/Gxq83M68Usa0XOlmDYdhVX74D7kWeeHRdk79crPvWUVoajEm1+9B6pTA11da2FxA+OYGwQvGxfeA0Chc+Bd6EW+qni50lYsAwkdWDGeS3UEE30tOeLOpjY/p3u6k6FxOVS9D3QBiF333dh1fH12NHxs5afe/UvpUYh3HLVF6GVn4+xqpOo7WV2fvFwbFzAGa8hGYQBsIXm2Ex8/WFcZWtckYjaICl4nEdikdq+zHoCnYTdTQ9/kerqT0RcPZ1D0P75Ag/oW9OdrnRi+MXrDg1euWDHRo+5QiXctHQ8z+bswGUfbnYwBfUoObf1npv7ceR5x6+IK/VcSskHE7EKUIg0gNCAEcHiagX4CwgEMT6cgH3j+AU83IjP4ZBLuGykJwxwhkqote2KihkFDASZ4HSLgEXuw4KZddjse0rgY7Qs6a0evG9n1XnyyqZoIG9X0yBtA9UFMBl9JJ1oLgngDZCIwk++DKM2muKToYm+1pedkFgOrgFrFSlAmCo2iGAM6ndipSmUyzzsPYBfxUwzoMtzYvKGM5QNZMfJk7PVs7VRwf726odIXsJr6BgzN6ZHZorNu/tqV550y229NmhiP74Qbntw5jOZvx0S8D6el1RvE3qk2VN8AyJKqeSFHwRhUbabALisW2C9i2+WiAGooqEVnwZLX3JOhPIiC3QOuea7FRHwZd4S+fsWCW+8IektCqZ7FmifijlV7hFtXvSaMxBMwGS/lawTtkx83D6sam0KqXJCmLXeKVFudA98lyqeQpXQrwGwqqJOQc6W2uYjVr8Jit4TDVf6VrNP56Mj87e5YMfHy1i0hxok83HHttqE7s00oR/kOqEaq17KCN9dzrF5WarZaI0Gm8DN1LObj9vcOuAB4Xrht9SEwHIjfvPG1Ojq9Tbev0rpZjaVa+4FmtbdZdLFRW+wGg8CyKdBOchfbxi+xT91VfSpnB66MLpoEahITtqHDZBR45/Ocy85+U98P+7xW3r5mQRgdOxS3094U7rnuyDBGT0aO4n19CUd81GHakFWWn/zDWHXIYSPHFj+c1FvBw2VVgZ5MdFTAcYwLnc7SFTPp6S8t2FST2SZqrlSBWsVKqIBsE4CXCeG2vC52H/eGIts1sSmj1ox2pA29bzIKCtZ5A75BlYevFiMLPlERJSne/1svCvcVvx7G570RndqXj+cFfHnbEQ6j8u31yETvBlmTqYMbytnHwwpapFKLYUqxubbFc7oWkVTdWJSPJpsO0nu36QgNPZsa2KYOHcYtiF90ivwTPzn7uP9OceBKDyzPn/8enEr+Nk6598ZfOr83OhH6+CS2VeaQ+mQBBuit30ZQH0dfPMfTl3y1oVbR0aauqE0AXDmwbws/zrIynO1gp+WNzOYcE7ssoe8zqc4ZQJh38A5NFj976SdPvFEp4l0nj4fu6r/AfvodmBDZXzg/A5Lg9CxK28sM8zgnNyfATCJw1SLPydnWL9JRsQBJ9s2mvS82A3Cl3gl30z1m/3R0jdivGTZAHwmyJ0+8vG/GNN86vqD7BVXFC5d2Q3fNB3D2clI1GWL1HCyrF+o+mwP4/nnZ+ko8wJuLCFytRxZXqrh4H1L4eCYP4kwUrTzUuYyuwTATmIo7ZTUVDyVEbUHIRG2pBdmqIx/80SluVhb/tGJiWfW09z5b/xom/j3YReFNKi3KK22LwUI9ptkUKxhqtvaVDcIhslUt/GSrZk44XYw+Gzs0YtcpKpeWeKSiftME5OFqYsvxrapf4GFqOQX1wcmsBXo2eXuLziclFtNZL/6HMTzwuvng+DtsGVvVOmm8g/gkpuGEsRZLMGxSHmo0ZFHJYOpjIoqBnHPYvE8znnVLBMa2yDlmpCgvoe7h+2HjuInG36+ldiqtQYwdGMi+qX6uxmu3d+TzO/ebaqb7epzR4c6yatbDYTiHN9EZnVjvl+cXEFctMvOKnmQnJpNTNHPDAHEymAkVmVeZjwi0hYxmV1Arx/svq3G6eXfabqBpBuwjgsJ0JvT54ZbMLfOx+VGQeNUpI/g8+G/g92hqorRwMJXweVng7MayYCqFSa39UmWTU/VNzibO58PLzTFYt0TwPF7uiwdjWT4Zig5/Fyyfml2Dd+AyfEQMhtaAxMaMqVZRdeRjfoqlW3/xgc70tmlXuNPDeKWhfF668CU89YqKCFwNkJlbbVKzK2QftyYrtfo1YhmWcA1O7ZPGoJqKxxHG3FpktgmgKXsekmnriOHmMFnw7f78uIVvxRfE4nVQ89pMsTma8KV2U6fB+kDSUZzyxrD6kel7072HooMve+b0KpjYhc8q5TMFCSiO34nJ5pZmM6EyssrrnezEWizybibOGOFkfg3ZY5jDFmIxxzp/Fq7BM7588pNPTGRlN8/oCP9w8tIg5KwEbTqJwZVgGZ58cOMqTQbZY7YFXvwZNzoSxMViON9kSzxGr86UKEtWU6ZYHDAJJove/KhNRgagrosVf5/BucDX3EXgqkVmGgNLbFKiZNkT+FsRFq+cpCb/bLh2sns9nkS5gyN4UkJQ1KaumRSBCZC9aotej17KlJtJrmM6oia/6pmXjN7HMXu1l9nPFv3uHuvH4mV2B9Cwc8gWSsBcOZknn0AoTTnGu6C9HLfU2IEn5JrPvP4JXFH/V57T40ZCRM4kc9PpPKFiaxjywV+1fRAP9pQEIluqktCQ0ezrMOm4kC85S/Gy9kPJGSZYk7VNtZeVsFF7fpLFhYWmzG1RDpKJvslJt3bz7OvZwZfhpCoVnhASy5h9BR6Pix4VmD05GTyhAmsYbqhljlpwNV/idy5eJrVv1/oBQ83WBM/B6Uy1sTX5Pc7kvqDSjxY9+XhOkulgnmcPhzh9rlGSShtXfnLZQzi4/wmusIFO/9dHqkiqKWgTQ7qkTvbaJtKweVwypQ43ObytRbY+kE37IzhWEZ9yepnUojccCVScvsYJPfmwWWqVzY0VzDKQX+NmGX6HCu/ODln5YHJIS5sQas6bv8M/4PrhR3ouZkDuiAaT2ndGB1HTmXcSvM3LZNVOmswA8Rsg9yUrwS2hzq3Oz0EU3B/b/CBsiGx0AqaqbzwSTvV0vMjDueHJ0QuqjiSpNiH4FW8Kt2j/DEf9h5rA1HZBq946k42gxX2Ar3aSPJruNZs3QrZmQzYeARhOu+QUnr8iTEAHq0wtSq9iT6fw/CrTZHSzH+KX2rOyl6/o+9W0NiHEt2oBHfGzs7B/S18bUCLtFcdzQUnf1LFPyy5rrg7PaWuLRw4aW2SrBN/aLwKh2LhEroXQBmrDiY6rpqxtqZv8mjv6rkMnuzD0en+YHXzpAwRrlr4JoX8ga12cPQ+nwR/GxKxNv3BqQHJ3QS0hTmcDaIYi1wE40s9pUy7CDZBJzTYBNOW5+JWSOSxAPZbxC9jBWDOIXzvcyVbh9tE5YbY8KTvsSvt9SNis6psQslx39tvW/uTsEz8d8+5x+AeaHsbE1AfL7uiRHzTp0ClSNfuqcK5pMbDzc9k0HhO4IBKNq/XIGxybYgkX+VCxJtlUIUqzEc416ExqFCnOsxtwHvubOGZ8IHvJFfeR96Di3nPoh1xx1gnfP/yMLx+F7ey0LC+PxMNs+AJOmI9nkfFVJkTjR1ApKgp1JG1OfEaXlC1L3+GmuWZzA6MMWLMhE0eWrcZlJ/0La4aqXQdxX8lKZukvAfQHS2jrNmqTkgrFUx/nzzoB8d6ZMVhwYxpuT8DxpjBV/HvYYd53sz1W4OG89Zc5JwQDjZfh383Y7/iJd262+177d8r8EHThV0G7E/6ZO/wOnl66ok5rn2k3ySXPbtrzqK3Klee5TviEe5kgvu1lTohyUHJa5Dx+BwfKz4cil2d9cKz0D5moS612Owc6tGrO0xMWDmkGD6rs5Kux6P3DDm4ZlbiDvqbzcPjRxQ9nE5qQymUuae4JEc8bl0/Qjcer8VDbNUvDbqOrJxeMzVs160bU/8//FeNTU8uXnaz32+Fumawnn2L4CfDyXJNBflToa6f0XEDsXJo9/9v8M2gy/O9cbtCE2NDwlOEKfDMN7Q3a/MyPv+bl5q8y1CfDT1ptMmoOqcHzK5OMf74nPNntxPPxCOimKMcvx3uxtc5tiijM+dQmZGN0w28BXq5NABJtG5QmnYK3yrRPeVGYt+4Pwv6TPfdVQezO3QZa6zt2q7Jnral9g5791nVo5ZFXxfO3vyhbtnwQofd8RvKQJgQrLj/UblmubxnPfGJeirk6opZl4tTdf40f+aJutNpg0C7SCYtOWl6cExb+DIfT2nQ/o8QPch7OhBRYseQMjDtSS5BmgCwuIU1ZzJYxdnO+fNrH7IA4fY2HQgyyQW+mhkzvkIR98He7BNh0lW6Umy5Ck7mWEBgtCV5uUfapnMJzepliO9gGTwb5cYEzbUn0AgvNxxDKcLYQHgi2f58sL9fWYiTBkigCVy0y8RqW5FrD2aD3prniGU4ErnTfxQPZpIvhbSE20GbiqK1jNEEVzqYqh2FR2k7NTtaGYDJxSJvW/NroPUhkrrCgz/INqQxxC2kbEQYrYzerJoEUg2S2OceBW4ZykAMV+EScsneze3AxdwnuKz0RxvJ9w0xxCJK+LWyYIuH1sZPzUJZDnBBKhgxWh2ZNEaydcmfJYbwzOlHzp5S1di0enLLsSaT8c6Ezc3a23+XV0/jXvexluMD8GJ4ePJwnhfl9EGPf5EJto93k0SwABuuTRWO3JJCNgLxIlYjszn5qo9rJNc6aE3D02nP+tbBw5Ew/Gcx5wEWX4PeJD2HHdE8tNhlTvCzcNzmU3dZwJoReO/D74VqufIMSwFmgheXaBA/1yddJSV6SRGsk9yzQc0//lu31g777PDgjL7MX/vhibEE/TTdMxbcWQ/k2bT2cCeliQnT9qg2ylmHLe33IgmmdKE2c82jyawj658Bn4p0O2Sb+3K6Xmjxt6E2gG86E4IdI7LtxS1qzg5GQbM0WmW0CGCRTQpqclqQGJ15gxN2C9teb1SeP8i66xFW9v+hU3SaqhzMhvXg3+o/fB6T4JNKs2PgbMsHZZgBVJCLP4+U2ziJuhu/AHZ4c+5fxxqULcWNkSd9r0DXefr+NrRnOhOz7nbuxb74Uv5zV1+hm4mx0MgGcDDcZPjlermYUDMCbiwkUdxy/U7wpXrsUX8+rl3jZknlhavZ38e7KAWap+GfwG8e9Yel2Le9VG3qjCbpn32iEg4jiLUfTF9Muwdd0FiZMS+I4f5JEL5NDlaC63JwAcbdZqfPQlcZFeLLmXGwJ14bZ6ckw0t0RZ1/H8DuPZdyB++ZjdcL9+AXqrdkhl16Y+r1pl8O7DnnekuvDrZedirUNb1GV+MaKDkwEnzgvE8wnyMtPZTJSmAxbwZF4re4gbLGPh5GRHk425mEytrXX7Dw/ra5ZuBifRuGXabTHm7Ie2haig4i3Hn0OEvBunAaPtK7Fc03GXBOQEi5h0PA8ZhOhZjMjfCFrkx9myx7BSxqLs8Mvx1YynDKcY4gfS5z+GG5dfAa7jjV8KlxLDgE1IyQ2ZGtCMLnuwoZWmyi58jLFlFL5Fbi1cil+Gj5qmJNBvRj6FkJB4yM4o3li7GhsKR9B8wA7s2lOAIG5IFOWrDlkwg7CmU0APhbboKds5HjKIWZfhHx2dsjlN5NpmOVZmRAdYLztxZuH3sLTkIXTsTXMxwQlk0+Wlynb6004UTRwojJn5jCihKfnp0L4Gb4cd9qwDuAUsFme1QnRzsSrX7FbGA9vxA2M1+DgujsStwOumOlLqfQ9J4E1kqxqtg6yCcg4LCIEfIMlRPqmIh7pjDfgqcKvhnzhD7IXfm+top6N+jkxITrweBW+bTg/vABvpe6Pa5b9cWW9Ny7WdsNuZEfs1rbBGVrqL31WlXLNf7pVEYtMAMHoN3EdXcLTs8qP4A8HaHrrOL8Z8Bvxpv714aBd78yyTf8AA/VwfUW7vD7cUO1YofEv/y0dw7X9eJjF30i5WSjzbXhiOgGfborbQd4q9IotkXV83BifCKE9Tonpo987QqAnGR/HpPwSp7kPY8u7Hx8kezR0Oqvwaf1JnOhOhcnV03g3YygXe08lef8DQmyyiUa3nUYAAAAASUVORK5CYII=;" parent="1" vertex="1">
          <mxGeometry x="265.8" y="320" width="40" height="40" as="geometry" />
        </mxCell>
        <mxCell id="4LUnRma8o_YQ2aAeQ-uo-25" value="" style="shape=image;verticalLabelPosition=bottom;labelBackgroundColor=default;verticalAlign=top;aspect=fixed;imageAspect=0;image=data:image/png,iVBORw0KGgoAAAANSUhEUgAAAGQAAABkCAYAAABw4pVUAAAAAXNSR0IArs4c6QAAAIRlWElmTU0AKgAAAAgABQESAAMAAAABAAEAAAEaAAUAAAABAAAASgEbAAUAAAABAAAAUgEoAAMAAAABAAIAAIdpAAQAAAABAAAAWgAAAAAAAACQAAAAAQAAAJAAAAABAAOgAQADAAAAAQABAACgAgAEAAAAAQAAAGSgAwAEAAAAAQAAAGQAAAAAPYM/1AAAAAlwSFlzAAAWJQAAFiUBSVIk8AAAH/ZJREFUeAHtXQnUJVVxvt3v/css7DtM2FEMi8gAOmBkVBTlYBKJDIoLJEaMR2JiALfE458TNYIoxiRGyGLUmBgmMUHjvjCyijDILjuybxJgtn973Tdf1a2qru7X758BZh4kJxf+vnWrvvrq3rq9v+6eEP6/PKcykD2nehNitvfvf3t0i/kj493OuvGQ55vnMdsuy8OusYy7l+XsoqwMO4duvlWMYacQ4/YhlgtRdzCOmZBnj+ch3A/bI6EsH83y/J4Ywj1lKO7MsvBQtxh7IsvXTHbHd55cMbF0OoQM5udWeU5MyNKJie50WLx3VnQPirE8MGThBbEs9sizbJdYltuGvIOcI3exSHUgWXKpNeeVdDIkVBlmgf4DJ+HXQEWTdRdAt8J6NSb6ulXj5Y03Tiybea5My7M6IUsnLhyfKde+sozhLVlZHhhDtgvStxDJpxlAjiKlPhVLvGmqSWEE9GZSoU2HIYMWcdZii3oIjZuzrLN8JsQLVp657EkN92zVz9qELHn/Nw8IY52/Rgd+rSywgsoE+KRqWpONUmQawWva2hLfpiMKx0F8+D/rdLE1xZ9jazrjsjOXfVNZn4166BNyxMQFO8fYfRf2Pqdh/z+Pdyc6ckuWbBmcO02g1u1JTRSKQa1iJbROhgFp95ZlvVDGf8263TMX3RluWr58WaFdG1aNY+DwyosnvrV5LEc+HXvlGbHszT0Z3C3NqtZQ2qQRoC3xg3SOw/ycDseZWBRdrApvjkXvi/fsXr6SuzDkxfAmZGIiz2P4SlmUy7BVjNXGaUl2W4bTGdZ0pBmUeEVLsqlyea/8vBKyNmliyvKgLJR/f9ipX9pD2YZVD21ClvQOfUcWs2OxGjZ2k5SJrIdT1PuxL/8Z/lZmnexunBxN1ZJQmwxYNIEmuKSajhgMmGTfJDPZTSdCLDNsLYvysc73Dj3j/B0ZNqTFUCbk0DO+uSP20CeXvdnGsCgB2bq80/lbdOQNM5OrX722l70qj+WxeZ6fhd36I+xQmwxKoGbQ1SpW2XU4YiE/qQ2jOtVTLSXF2LsTe2fgbLCr6k1dDyVQd7x4foz5IslIGlMacIHE/3OvmPnwT//8uMfcYB9fPPGNO0dmYsSl2wewI5NdXFsCW3SWeGX0mDYdOzQmEM2yhwN955g1a+79ArxuUM9NWQ9lC+lkI1vj2mKeDUTX8Cw8UJblPzYmg2ErJ163LobJv0FGHkx+PqmSQFvrCaG6FplNtFAMahUrgRxdSRgc73YaDyMHwtDY1TroRhSHMiFFiTU94GqZik4GJSLLH50dy29Jhv7lFR8/8WGk4eds6UtgSljyMqPjJ4tinN10YueKcG0YXKrGuLBX9vbBbotuz2zyMpQJ4VHQeG3Q6WwKV8vlaJiUmWofKxJC90vE6GoVdQ0njOEITm2pxbvSOX3NR/TODz2luwZbzHvs+v9LE0LXVzxKrk0q4zZhamw3SkNbOeJ9F2xWluH5yWZeFZVyqslIoGCdN6iOQKJfz2RoXFop7tlmR09mkTa2MJQtJIu4Z5vhKgTFRoVkxFDuEvPwZkp8c2D7TZw/WnTLk7Gr28V5OdGYPGuSvYmJoTCdCY2QivH2Nl3DbSM3hzIhOKunyy3+L+VHBh3DKCbl7b1u+cHF7z9/Vx3bUe///habTXbeGYridHjOT3pKjibL/J2OUISROglOp3pSEU44GOf9CEdFdak1rOVQTnvTYCQBtUTAUsYtcWr7RyP56BuX/PEFdFt8Zk1v1b5IyE6YjIWWCM2fJZospkyyb7IjFKYTweI7fzYZ0HGpbignWNzjIU0IjiE0NkuGDJQrPsCPhbK3B36ESrcqRM89JEeBO8FxEUoxBnQ6sVNVK4Llqs3P6+Y876ixPtPGUHZZgedDB6g1dd3L0mSV6lGrWAlPfzJshZC01WJJf/p02IgFPoxqSFsIhsKjkuw2B11LlGBsrZdEWaV2UTS5Wv0aPhvKpf3CPZxhleFsIbjPix+AXFacWBup6lGrWAlAmjLJ3GzTEanofVhSUxno57jEL2mGt40MZQvBzcKyzPIpnMJOcjJshcNwacS8BrLA+aIfWKvnDwjcxJFKMbi8TBdvIxCEmbjaivDUTKpzPrXJIPBw1luKNJQJKUZHrs2K3ul5meMmIV0kSt6oB7zy0cLpSD+wkD+KVCTG2FuM8+q3I6U4K5PE1rYM1TGaFlKgZ5PYSVubDNGXG9o35X369VAm5IqJY+5DF5c//W7O7bnk9H9ZE/PyLTiFTqfJG3MyaE7w7NGwylAmRAbjVsONPLwcM4BHV7hs7MngTajaQuJtrx0LnZEtQz6d9mPrGmOhy1jSbT5/Jtzz0Lqw5PIp7JE3eOxPaUKOP//8zv3XLlhU5tmiUBZbY98/gmM17bmj34VQF/ELIDpR7VfwnFU1KgJIyXAnWGWqcTHYilMuvQWjbfYpysPQg9HWYTO7DwG5qZMuJJRgmxjt5Ejn4DBbfCQU3S159+YzSDxTOLjhDCasm3osbLvF7eH2Y66KtxeXh72+e8eGTIyn05B99eJTzh3pbr/zq+67Pn8zNt/98zLgycFyHKtlh39C0rXTPHGYdXORMoCOylglI4zmB+CcX1JiF6HTUpsv8OI+TIK7iYtxFMei6vihgfqSCkVTt97JIAd2SmHzuDnaL0I8PDXp9F6mA2MaP1bWYhXG8otw+2u+FB+ZOi/bfsWaRNS+nHtC8GDC4TOHHogb0H+FNfOIssBPsLj9mrqB5LCAhXVmUAcJox1QoU0HjHIxrA2DwSqFCuqjIahWf9MplzlbrKQRPVeK0dpINNHmmyweB9maWAnLsAUwLwwj4VPhidGXxwded0K28zeaOzoLMPB8Dj/ILDy8POS92Aa+jd3NEWUPD7NhMrQDVUyVtAailiDozaRCm26QH/nM4deMRViGqw/1uEUnfgklWK5E1pjaJBotPibJhplDnuGt5tiwevrH8bajD4ab7gOUlevWCVky8Z2tZ3qTn41F/CjuuO7ICbZOYMtQCqdjFRlMR5pGBxVUEbAmqU3p/Np0hBZ9M5aZ2vycTvySRrnM2fGTbq7iOFvHSr4OU2BSeuXiUMRPhttfu2cbc9+ELHnv+fNCUf5pGWffRscJdrKBzzEZCehioCPWFxVadGQyfnJXjPp4nchcNexmaui56XRPaTLIz/lSDC3EY6YWmW0C8HKJLaNXviLMzJyhVL7um5Bs4YIT8LTFSQiWfrK0ZMlkELnTMVlNRxoouBMiK6hP5+0iM8aAUEK2pggW3/mzyYDOz+nEL2lEz5Vi2nSgsl01xUNpxlf31r6yA7vZONg/+514/SuPTYZqWZuQpRPfWoSzng/BMf2CZ4HdllGxViymIxV65zvIqBYdYYy/6cdOBOjnqvkIjuPxolI0deKXUIKtYebQaXf6aviImxOAauFq4so4Ekayz8SrX7udp60mBGdU00U4E7upffh+hg3cTYbTMQkFMZ3IzcBtSTVnFshRxsCEolQdNYXUx2KdYsTOni06+BEioQTLlcjG72KRjswcs0oTh+CF2L3MdLzQYAkuKlNSm3jLuFcYmz4pgdLSIh1evHhx3u2eyEBHUIkqaU0E65NhN4gJqTPWC49Rpdc5PzVrzSZvVz+nk8lQF65rfoKt6WpoNPTs0ukthAmV0VQQvEwIbouyh7oMx8Wrlm6rzjwh9AYTLrV/r5jB47S8RphnIphTJ9hmYIrcp6MOmZIagiGd6lUnvFRRMT/BMlx9GOC42IN9KkSbn1i5qpD9KyVuXd54k5Diiq/WF+qbmGw81DZlJbfHwVbSeYky8IRMT++/Nw5ch1UHr5ZNXAM0SQd1wvojAlU2EAoPhWG0O14nRvKp+SXXurP6iQ/Tu12tBmKzYqSu6dhRO8OBcB+kyEO+brv9mptJ0x9t42ramEoXid/GFLcOeXxJvPH4UTLwhOT52GLck9hdkI5XiFsHRGjYFWIC6VSptWBTAOdHdsWgVlEF41F/xRiwwUU4FPhVCJG4Um2bLvlVjgmD5XTezR9ZqvutoqScpYs6hnguWLT02QRHdj8uvL2EY8mhoXhwAZnypRNfGC+zbDEuHHGfsmUgVQ+JiXyqYk0VUKtYCfUOkJ4xBgSf6oja66tQLA30cz7PZDIsnPBx4uJa3Be9b2JiIh1I8g4lbqy9m+pHRC0yq+t9Fdi+oTuKe2SYkN7UdvOyWO4PgupJNptBR2o6ZgVciV2tonUGCsOpn9RUcSGMk0kkH/Mjo2IM2K6DT4UQiSvVDtBZLA5OC4uPe3iP4WWR21g1gT3KbLE9rrR55bV+sX8Ldy12xUlc1fi4tQhvw+xGUj47nmPGs72qu65C7IbGgdmPFrArxIQWnWHUUTHeoDrh5aphN1NDz02ne1qTAXJHYQ2bIOyZ8nDNopdtxRMSjj8eu5dsL+yw3E1ZR9Dskyc3TorpfAiTIcoIbkCi5EUxux0mA49rohjQOZiOEdZnJzjR+fnOkOxNKZjT9RklGPWpEpOkXM7Q7CMB2awYqWs6AyVaC6Q+SE6GA3rMPr98mbz8Ofn4POToEMtTBW3Eo/jO6GWLI/EJRve4yt5i0nS7vbAHIuNBNSWQmivVOWcSjRR2g5hQ7wwB2OTspvNcRKsYqQf6KS75VK02vzadj+X6YPGx0mIysN6efflfnnIRIbjMy/bA2ry4Ot9q4WaV6MnJcdZknwPKfZYdQfAufsXaq9rzOqKURcKgQG8mE/p1PnifHyvaufr8EswFcH4+vpO1g6xSvdQ1HfVD7U72faBf/LLwnzEs/HgN3M3eBlfs4p3/XNye0/uQbBQqxz2pN/Qa8J5p5gTBlaHh6GRjgc7UJhCfK4rxdtURTPRt/Gxq83M68Usa0XOlmDYdhVX74D7kWeeHRdk79crPvWUVoajEm1+9B6pTA11da2FxA+OYGwQvGxfeA0Chc+Bd6EW+qni50lYsAwkdWDGeS3UEE30tOeLOpjY/p3u6k6FxOVS9D3QBiF333dh1fH12NHxs5afe/UvpUYh3HLVF6GVn4+xqpOo7WV2fvFwbFzAGa8hGYQBsIXm2Ex8/WFcZWtckYjaICl4nEdikdq+zHoCnYTdTQ9/kerqT0RcPZ1D0P75Ag/oW9OdrnRi+MXrDg1euWDHRo+5QiXctHQ8z+bswGUfbnYwBfUoObf1npv7ceR5x6+IK/VcSskHE7EKUIg0gNCAEcHiagX4CwgEMT6cgH3j+AU83IjP4ZBLuGykJwxwhkqote2KihkFDASZ4HSLgEXuw4KZddjse0rgY7Qs6a0evG9n1XnyyqZoIG9X0yBtA9UFMBl9JJ1oLgngDZCIwk++DKM2muKToYm+1pedkFgOrgFrFSlAmCo2iGAM6ndipSmUyzzsPYBfxUwzoMtzYvKGM5QNZMfJk7PVs7VRwf726odIXsJr6BgzN6ZHZorNu/tqV550y229NmhiP74Qbntw5jOZvx0S8D6el1RvE3qk2VN8AyJKqeSFHwRhUbabALisW2C9i2+WiAGooqEVnwZLX3JOhPIiC3QOuea7FRHwZd4S+fsWCW+8IektCqZ7FmifijlV7hFtXvSaMxBMwGS/lawTtkx83D6sam0KqXJCmLXeKVFudA98lyqeQpXQrwGwqqJOQc6W2uYjVr8Jit4TDVf6VrNP56Mj87e5YMfHy1i0hxok83HHttqE7s00oR/kOqEaq17KCN9dzrF5WarZaI0Gm8DN1LObj9vcOuAB4Xrht9SEwHIjfvPG1Ojq9Tbev0rpZjaVa+4FmtbdZdLFRW+wGg8CyKdBOchfbxi+xT91VfSpnB66MLpoEahITtqHDZBR45/Ocy85+U98P+7xW3r5mQRgdOxS3094U7rnuyDBGT0aO4n19CUd81GHakFWWn/zDWHXIYSPHFj+c1FvBw2VVgZ5MdFTAcYwLnc7SFTPp6S8t2FST2SZqrlSBWsVKqIBsE4CXCeG2vC52H/eGIts1sSmj1ox2pA29bzIKCtZ5A75BlYevFiMLPlERJSne/1svCvcVvx7G570RndqXj+cFfHnbEQ6j8u31yETvBlmTqYMbytnHwwpapFKLYUqxubbFc7oWkVTdWJSPJpsO0nu36QgNPZsa2KYOHcYtiF90ivwTPzn7uP9OceBKDyzPn/8enEr+Nk6598ZfOr83OhH6+CS2VeaQ+mQBBuit30ZQH0dfPMfTl3y1oVbR0aauqE0AXDmwbws/zrIynO1gp+WNzOYcE7ssoe8zqc4ZQJh38A5NFj976SdPvFEp4l0nj4fu6r/AfvodmBDZXzg/A5Lg9CxK28sM8zgnNyfATCJw1SLPydnWL9JRsQBJ9s2mvS82A3Cl3gl30z1m/3R0jdivGTZAHwmyJ0+8vG/GNN86vqD7BVXFC5d2Q3fNB3D2clI1GWL1HCyrF+o+mwP4/nnZ+ko8wJuLCFytRxZXqrh4H1L4eCYP4kwUrTzUuYyuwTATmIo7ZTUVDyVEbUHIRG2pBdmqIx/80SluVhb/tGJiWfW09z5b/xom/j3YReFNKi3KK22LwUI9ptkUKxhqtvaVDcIhslUt/GSrZk44XYw+Gzs0YtcpKpeWeKSiftME5OFqYsvxrapf4GFqOQX1wcmsBXo2eXuLziclFtNZL/6HMTzwuvng+DtsGVvVOmm8g/gkpuGEsRZLMGxSHmo0ZFHJYOpjIoqBnHPYvE8znnVLBMa2yDlmpCgvoe7h+2HjuInG36+ldiqtQYwdGMi+qX6uxmu3d+TzO/ebaqb7epzR4c6yatbDYTiHN9EZnVjvl+cXEFctMvOKnmQnJpNTNHPDAHEymAkVmVeZjwi0hYxmV1Arx/svq3G6eXfabqBpBuwjgsJ0JvT54ZbMLfOx+VGQeNUpI/g8+G/g92hqorRwMJXweVng7MayYCqFSa39UmWTU/VNzibO58PLzTFYt0TwPF7uiwdjWT4Zig5/Fyyfml2Dd+AyfEQMhtaAxMaMqVZRdeRjfoqlW3/xgc70tmlXuNPDeKWhfF668CU89YqKCFwNkJlbbVKzK2QftyYrtfo1YhmWcA1O7ZPGoJqKxxHG3FpktgmgKXsekmnriOHmMFnw7f78uIVvxRfE4nVQ89pMsTma8KV2U6fB+kDSUZzyxrD6kel7072HooMve+b0KpjYhc8q5TMFCSiO34nJ5pZmM6EyssrrnezEWizybibOGOFkfg3ZY5jDFmIxxzp/Fq7BM7588pNPTGRlN8/oCP9w8tIg5KwEbTqJwZVgGZ58cOMqTQbZY7YFXvwZNzoSxMViON9kSzxGr86UKEtWU6ZYHDAJJove/KhNRgagrosVf5/BucDX3EXgqkVmGgNLbFKiZNkT+FsRFq+cpCb/bLh2sns9nkS5gyN4UkJQ1KaumRSBCZC9aotej17KlJtJrmM6oia/6pmXjN7HMXu1l9nPFv3uHuvH4mV2B9Cwc8gWSsBcOZknn0AoTTnGu6C9HLfU2IEn5JrPvP4JXFH/V57T40ZCRM4kc9PpPKFiaxjywV+1fRAP9pQEIluqktCQ0ezrMOm4kC85S/Gy9kPJGSZYk7VNtZeVsFF7fpLFhYWmzG1RDpKJvslJt3bz7OvZwZfhpCoVnhASy5h9BR6Pix4VmD05GTyhAmsYbqhljlpwNV/idy5eJrVv1/oBQ83WBM/B6Uy1sTX5Pc7kvqDSjxY9+XhOkulgnmcPhzh9rlGSShtXfnLZQzi4/wmusIFO/9dHqkiqKWgTQ7qkTvbaJtKweVwypQ43ObytRbY+kE37IzhWEZ9yepnUojccCVScvsYJPfmwWWqVzY0VzDKQX+NmGX6HCu/ODln5YHJIS5sQas6bv8M/4PrhR3ouZkDuiAaT2ndGB1HTmXcSvM3LZNVOmswA8Rsg9yUrwS2hzq3Oz0EU3B/b/CBsiGx0AqaqbzwSTvV0vMjDueHJ0QuqjiSpNiH4FW8Kt2j/DEf9h5rA1HZBq946k42gxX2Ar3aSPJruNZs3QrZmQzYeARhOu+QUnr8iTEAHq0wtSq9iT6fw/CrTZHSzH+KX2rOyl6/o+9W0NiHEt2oBHfGzs7B/S18bUCLtFcdzQUnf1LFPyy5rrg7PaWuLRw4aW2SrBN/aLwKh2LhEroXQBmrDiY6rpqxtqZv8mjv6rkMnuzD0en+YHXzpAwRrlr4JoX8ga12cPQ+nwR/GxKxNv3BqQHJ3QS0hTmcDaIYi1wE40s9pUy7CDZBJzTYBNOW5+JWSOSxAPZbxC9jBWDOIXzvcyVbh9tE5YbY8KTvsSvt9SNis6psQslx39tvW/uTsEz8d8+5x+AeaHsbE1AfL7uiRHzTp0ClSNfuqcK5pMbDzc9k0HhO4IBKNq/XIGxybYgkX+VCxJtlUIUqzEc416ExqFCnOsxtwHvubOGZ8IHvJFfeR96Di3nPoh1xx1gnfP/yMLx+F7ey0LC+PxMNs+AJOmI9nkfFVJkTjR1ApKgp1JG1OfEaXlC1L3+GmuWZzA6MMWLMhE0eWrcZlJ/0La4aqXQdxX8lKZukvAfQHS2jrNmqTkgrFUx/nzzoB8d6ZMVhwYxpuT8DxpjBV/HvYYd53sz1W4OG89Zc5JwQDjZfh383Y7/iJd262+177d8r8EHThV0G7E/6ZO/wOnl66ok5rn2k3ySXPbtrzqK3Klee5TviEe5kgvu1lTohyUHJa5Dx+BwfKz4cil2d9cKz0D5moS612Owc6tGrO0xMWDmkGD6rs5Kux6P3DDm4ZlbiDvqbzcPjRxQ9nE5qQymUuae4JEc8bl0/Qjcer8VDbNUvDbqOrJxeMzVs160bU/8//FeNTU8uXnaz32+Fumawnn2L4CfDyXJNBflToa6f0XEDsXJo9/9v8M2gy/O9cbtCE2NDwlOEKfDMN7Q3a/MyPv+bl5q8y1CfDT1ptMmoOqcHzK5OMf74nPNntxPPxCOimKMcvx3uxtc5tiijM+dQmZGN0w28BXq5NABJtG5QmnYK3yrRPeVGYt+4Pwv6TPfdVQezO3QZa6zt2q7Jnral9g5791nVo5ZFXxfO3vyhbtnwQofd8RvKQJgQrLj/UblmubxnPfGJeirk6opZl4tTdf40f+aJutNpg0C7SCYtOWl6cExb+DIfT2nQ/o8QPch7OhBRYseQMjDtSS5BmgCwuIU1ZzJYxdnO+fNrH7IA4fY2HQgyyQW+mhkzvkIR98He7BNh0lW6Umy5Ck7mWEBgtCV5uUfapnMJzepliO9gGTwb5cYEzbUn0AgvNxxDKcLYQHgi2f58sL9fWYiTBkigCVy0y8RqW5FrD2aD3prniGU4ErnTfxQPZpIvhbSE20GbiqK1jNEEVzqYqh2FR2k7NTtaGYDJxSJvW/NroPUhkrrCgz/INqQxxC2kbEQYrYzerJoEUg2S2OceBW4ZykAMV+EScsneze3AxdwnuKz0RxvJ9w0xxCJK+LWyYIuH1sZPzUJZDnBBKhgxWh2ZNEaydcmfJYbwzOlHzp5S1di0enLLsSaT8c6Ezc3a23+XV0/jXvexluMD8GJ4ePJwnhfl9EGPf5EJto93k0SwABuuTRWO3JJCNgLxIlYjszn5qo9rJNc6aE3D02nP+tbBw5Ew/Gcx5wEWX4PeJD2HHdE8tNhlTvCzcNzmU3dZwJoReO/D74VqufIMSwFmgheXaBA/1yddJSV6SRGsk9yzQc0//lu31g777PDgjL7MX/vhibEE/TTdMxbcWQ/k2bT2cCeliQnT9qg2ylmHLe33IgmmdKE2c82jyawj658Bn4p0O2Sb+3K6Xmjxt6E2gG86E4IdI7LtxS1qzg5GQbM0WmW0CGCRTQpqclqQGJ15gxN2C9teb1SeP8i66xFW9v+hU3SaqhzMhvXg3+o/fB6T4JNKs2PgbMsHZZgBVJCLP4+U2ziJuhu/AHZ4c+5fxxqULcWNkSd9r0DXefr+NrRnOhOz7nbuxb74Uv5zV1+hm4mx0MgGcDDcZPjlermYUDMCbiwkUdxy/U7wpXrsUX8+rl3jZknlhavZ38e7KAWap+GfwG8e9Yel2Le9VG3qjCbpn32iEg4jiLUfTF9Muwdd0FiZMS+I4f5JEL5NDlaC63JwAcbdZqfPQlcZFeLLmXGwJ14bZ6ckw0t0RZ1/H8DuPZdyB++ZjdcL9+AXqrdkhl16Y+r1pl8O7DnnekuvDrZedirUNb1GV+MaKDkwEnzgvE8wnyMtPZTJSmAxbwZF4re4gbLGPh5GRHk425mEytrXX7Dw/ra5ZuBifRuGXabTHm7Ie2haig4i3Hn0OEvBunAaPtK7Fc03GXBOQEi5h0PA8ZhOhZjMjfCFrkx9myx7BSxqLs8Mvx1YynDKcY4gfS5z+GG5dfAa7jjV8KlxLDgE1IyQ2ZGtCMLnuwoZWmyi58jLFlFL5Fbi1cil+Gj5qmJNBvRj6FkJB4yM4o3li7GhsKR9B8wA7s2lOAIG5IFOWrDlkwg7CmU0APhbboKds5HjKIWZfhHx2dsjlN5NpmOVZmRAdYLztxZuH3sLTkIXTsTXMxwQlk0+Wlynb6004UTRwojJn5jCihKfnp0L4Gb4cd9qwDuAUsFme1QnRzsSrX7FbGA9vxA2M1+DgujsStwOumOlLqfQ9J4E1kqxqtg6yCcg4LCIEfIMlRPqmIh7pjDfgqcKvhnzhD7IXfm+top6N+jkxITrweBW+bTg/vABvpe6Pa5b9cWW9Ny7WdsNuZEfs1rbBGVrqL31WlXLNf7pVEYtMAMHoN3EdXcLTs8qP4A8HaHrrOL8Z8Bvxpv714aBd78yyTf8AA/VwfUW7vD7cUO1YofEv/y0dw7X9eJjF30i5WSjzbXhiOgGfborbQd4q9IotkXV83BifCKE9Tonpo987QqAnGR/HpPwSp7kPY8u7Hx8kezR0Oqvwaf1JnOhOhcnV03g3YygXe08lef8DQmyyiUa3nUYAAAAASUVORK5CYII=;" parent="1" vertex="1">
          <mxGeometry x="560" y="382" width="30" height="30" as="geometry" />
        </mxCell>
        <mxCell id="4LUnRma8o_YQ2aAeQ-uo-28" value="" style="shape=image;verticalLabelPosition=bottom;labelBackgroundColor=default;verticalAlign=top;aspect=fixed;imageAspect=0;image=https://seeklogo.com/images/D/dbt-logo-500AB0BAA7-seeklogo.com.png;" parent="1" vertex="1">
          <mxGeometry x="555" y="320" width="40" height="40" as="geometry" />
        </mxCell>
        <mxCell id="fKt6-CcrcbfbB7j15rGw-10" style="edgeStyle=orthogonalEdgeStyle;rounded=0;orthogonalLoop=1;jettySize=auto;html=1;entryX=0.75;entryY=1;entryDx=0;entryDy=0;" parent="1" source="fKt6-CcrcbfbB7j15rGw-1" target="4LUnRma8o_YQ2aAeQ-uo-15" edge="1">
          <mxGeometry relative="1" as="geometry" />
        </mxCell>
        <mxCell id="fKt6-CcrcbfbB7j15rGw-1" value="Data Loader" style="rounded=1;whiteSpace=wrap;html=1;verticalAlign=top;" parent="1" vertex="1">
          <mxGeometry x="360" y="270" width="130" height="130" as="geometry" />
        </mxCell>
        <mxCell id="fKt6-CcrcbfbB7j15rGw-6" style="edgeStyle=orthogonalEdgeStyle;rounded=0;orthogonalLoop=1;jettySize=auto;html=1;entryX=0.092;entryY=-0.008;entryDx=0;entryDy=0;entryPerimeter=0;" parent="1" source="4LUnRma8o_YQ2aAeQ-uo-15" target="4LUnRma8o_YQ2aAeQ-uo-12" edge="1">
          <mxGeometry relative="1" as="geometry" />
        </mxCell>
        <mxCell id="4LUnRma8o_YQ2aAeQ-uo-16" value="TRANSFORMED" style="rounded=1;whiteSpace=wrap;html=1;" parent="1" vertex="1">
          <mxGeometry x="490" y="144" width="100" height="30" as="geometry" />
        </mxCell>
        <mxCell id="fKt6-CcrcbfbB7j15rGw-8" value="" style="shape=image;verticalLabelPosition=bottom;labelBackgroundColor=default;verticalAlign=top;aspect=fixed;imageAspect=0;image=https://seeklogo.com/images/D/dbt-logo-500AB0BAA7-seeklogo.com.png;" parent="1" vertex="1">
          <mxGeometry x="405" y="320" width="40" height="40" as="geometry" />
        </mxCell>
        <mxCell id="be-3MtDkNZX0zUbwORVH-1" value="" style="shape=image;verticalLabelPosition=bottom;labelBackgroundColor=default;verticalAlign=top;aspect=fixed;imageAspect=0;image=data:image/png,iVBORw0KGgoAAAANSUhEUgAAAGQAAABkCAYAAABw4pVUAAAAAXNSR0IArs4c6QAAAIRlWElmTU0AKgAAAAgABQESAAMAAAABAAEAAAEaAAUAAAABAAAASgEbAAUAAAABAAAAUgEoAAMAAAABAAIAAIdpAAQAAAABAAAAWgAAAAAAAACQAAAAAQAAAJAAAAABAAOgAQADAAAAAQABAACgAgAEAAAAAQAAAGSgAwAEAAAAAQAAAGQAAAAAPYM/1AAAAAlwSFlzAAAWJQAAFiUBSVIk8AAAH/ZJREFUeAHtXQnUJVVxvt3v/css7DtM2FEMi8gAOmBkVBTlYBKJDIoLJEaMR2JiALfE458TNYIoxiRGyGLUmBgmMUHjvjCyijDILjuybxJgtn973Tdf1a2qru7X758BZh4kJxf+vnWrvvrq3rq9v+6eEP6/PKcykD2nehNitvfvf3t0i/kj493OuvGQ55vnMdsuy8OusYy7l+XsoqwMO4duvlWMYacQ4/YhlgtRdzCOmZBnj+ch3A/bI6EsH83y/J4Ywj1lKO7MsvBQtxh7IsvXTHbHd55cMbF0OoQM5udWeU5MyNKJie50WLx3VnQPirE8MGThBbEs9sizbJdYltuGvIOcI3exSHUgWXKpNeeVdDIkVBlmgf4DJ+HXQEWTdRdAt8J6NSb6ulXj5Y03Tiybea5My7M6IUsnLhyfKde+sozhLVlZHhhDtgvStxDJpxlAjiKlPhVLvGmqSWEE9GZSoU2HIYMWcdZii3oIjZuzrLN8JsQLVp657EkN92zVz9qELHn/Nw8IY52/Rgd+rSywgsoE+KRqWpONUmQawWva2hLfpiMKx0F8+D/rdLE1xZ9jazrjsjOXfVNZn4166BNyxMQFO8fYfRf2Pqdh/z+Pdyc6ckuWbBmcO02g1u1JTRSKQa1iJbROhgFp95ZlvVDGf8263TMX3RluWr58WaFdG1aNY+DwyosnvrV5LEc+HXvlGbHszT0Z3C3NqtZQ2qQRoC3xg3SOw/ycDseZWBRdrApvjkXvi/fsXr6SuzDkxfAmZGIiz2P4SlmUy7BVjNXGaUl2W4bTGdZ0pBmUeEVLsqlyea/8vBKyNmliyvKgLJR/f9ipX9pD2YZVD21ClvQOfUcWs2OxGjZ2k5SJrIdT1PuxL/8Z/lZmnexunBxN1ZJQmwxYNIEmuKSajhgMmGTfJDPZTSdCLDNsLYvysc73Dj3j/B0ZNqTFUCbk0DO+uSP20CeXvdnGsCgB2bq80/lbdOQNM5OrX722l70qj+WxeZ6fhd36I+xQmwxKoGbQ1SpW2XU4YiE/qQ2jOtVTLSXF2LsTe2fgbLCr6k1dDyVQd7x4foz5IslIGlMacIHE/3OvmPnwT//8uMfcYB9fPPGNO0dmYsSl2wewI5NdXFsCW3SWeGX0mDYdOzQmEM2yhwN955g1a+79ArxuUM9NWQ9lC+lkI1vj2mKeDUTX8Cw8UJblPzYmg2ErJ163LobJv0FGHkx+PqmSQFvrCaG6FplNtFAMahUrgRxdSRgc73YaDyMHwtDY1TroRhSHMiFFiTU94GqZik4GJSLLH50dy29Jhv7lFR8/8WGk4eds6UtgSljyMqPjJ4tinN10YueKcG0YXKrGuLBX9vbBbotuz2zyMpQJ4VHQeG3Q6WwKV8vlaJiUmWofKxJC90vE6GoVdQ0njOEITm2pxbvSOX3NR/TODz2luwZbzHvs+v9LE0LXVzxKrk0q4zZhamw3SkNbOeJ9F2xWluH5yWZeFZVyqslIoGCdN6iOQKJfz2RoXFop7tlmR09mkTa2MJQtJIu4Z5vhKgTFRoVkxFDuEvPwZkp8c2D7TZw/WnTLk7Gr28V5OdGYPGuSvYmJoTCdCY2QivH2Nl3DbSM3hzIhOKunyy3+L+VHBh3DKCbl7b1u+cHF7z9/Vx3bUe///habTXbeGYridHjOT3pKjibL/J2OUISROglOp3pSEU44GOf9CEdFdak1rOVQTnvTYCQBtUTAUsYtcWr7RyP56BuX/PEFdFt8Zk1v1b5IyE6YjIWWCM2fJZospkyyb7IjFKYTweI7fzYZ0HGpbignWNzjIU0IjiE0NkuGDJQrPsCPhbK3B36ESrcqRM89JEeBO8FxEUoxBnQ6sVNVK4Llqs3P6+Y876ixPtPGUHZZgedDB6g1dd3L0mSV6lGrWAlPfzJshZC01WJJf/p02IgFPoxqSFsIhsKjkuw2B11LlGBsrZdEWaV2UTS5Wv0aPhvKpf3CPZxhleFsIbjPix+AXFacWBup6lGrWAlAmjLJ3GzTEanofVhSUxno57jEL2mGt40MZQvBzcKyzPIpnMJOcjJshcNwacS8BrLA+aIfWKvnDwjcxJFKMbi8TBdvIxCEmbjaivDUTKpzPrXJIPBw1luKNJQJKUZHrs2K3ul5meMmIV0kSt6oB7zy0cLpSD+wkD+KVCTG2FuM8+q3I6U4K5PE1rYM1TGaFlKgZ5PYSVubDNGXG9o35X369VAm5IqJY+5DF5c//W7O7bnk9H9ZE/PyLTiFTqfJG3MyaE7w7NGwylAmRAbjVsONPLwcM4BHV7hs7MngTajaQuJtrx0LnZEtQz6d9mPrGmOhy1jSbT5/Jtzz0Lqw5PIp7JE3eOxPaUKOP//8zv3XLlhU5tmiUBZbY98/gmM17bmj34VQF/ELIDpR7VfwnFU1KgJIyXAnWGWqcTHYilMuvQWjbfYpysPQg9HWYTO7DwG5qZMuJJRgmxjt5Ejn4DBbfCQU3S159+YzSDxTOLjhDCasm3osbLvF7eH2Y66KtxeXh72+e8eGTIyn05B99eJTzh3pbr/zq+67Pn8zNt/98zLgycFyHKtlh39C0rXTPHGYdXORMoCOylglI4zmB+CcX1JiF6HTUpsv8OI+TIK7iYtxFMei6vihgfqSCkVTt97JIAd2SmHzuDnaL0I8PDXp9F6mA2MaP1bWYhXG8otw+2u+FB+ZOi/bfsWaRNS+nHtC8GDC4TOHHogb0H+FNfOIssBPsLj9mrqB5LCAhXVmUAcJox1QoU0HjHIxrA2DwSqFCuqjIahWf9MplzlbrKQRPVeK0dpINNHmmyweB9maWAnLsAUwLwwj4VPhidGXxwded0K28zeaOzoLMPB8Dj/ILDy8POS92Aa+jd3NEWUPD7NhMrQDVUyVtAailiDozaRCm26QH/nM4deMRViGqw/1uEUnfgklWK5E1pjaJBotPibJhplDnuGt5tiwevrH8bajD4ab7gOUlevWCVky8Z2tZ3qTn41F/CjuuO7ICbZOYMtQCqdjFRlMR5pGBxVUEbAmqU3p/Np0hBZ9M5aZ2vycTvySRrnM2fGTbq7iOFvHSr4OU2BSeuXiUMRPhttfu2cbc9+ELHnv+fNCUf5pGWffRscJdrKBzzEZCehioCPWFxVadGQyfnJXjPp4nchcNexmaui56XRPaTLIz/lSDC3EY6YWmW0C8HKJLaNXviLMzJyhVL7um5Bs4YIT8LTFSQiWfrK0ZMlkELnTMVlNRxoouBMiK6hP5+0iM8aAUEK2pggW3/mzyYDOz+nEL2lEz5Vi2nSgsl01xUNpxlf31r6yA7vZONg/+514/SuPTYZqWZuQpRPfWoSzng/BMf2CZ4HdllGxViymIxV65zvIqBYdYYy/6cdOBOjnqvkIjuPxolI0deKXUIKtYebQaXf6aviImxOAauFq4so4Ekayz8SrX7udp60mBGdU00U4E7upffh+hg3cTYbTMQkFMZ3IzcBtSTVnFshRxsCEolQdNYXUx2KdYsTOni06+BEioQTLlcjG72KRjswcs0oTh+CF2L3MdLzQYAkuKlNSm3jLuFcYmz4pgdLSIh1evHhx3u2eyEBHUIkqaU0E65NhN4gJqTPWC49Rpdc5PzVrzSZvVz+nk8lQF65rfoKt6WpoNPTs0ukthAmV0VQQvEwIbouyh7oMx8Wrlm6rzjwh9AYTLrV/r5jB47S8RphnIphTJ9hmYIrcp6MOmZIagiGd6lUnvFRRMT/BMlx9GOC42IN9KkSbn1i5qpD9KyVuXd54k5Diiq/WF+qbmGw81DZlJbfHwVbSeYky8IRMT++/Nw5ch1UHr5ZNXAM0SQd1wvojAlU2EAoPhWG0O14nRvKp+SXXurP6iQ/Tu12tBmKzYqSu6dhRO8OBcB+kyEO+brv9mptJ0x9t42ramEoXid/GFLcOeXxJvPH4UTLwhOT52GLck9hdkI5XiFsHRGjYFWIC6VSptWBTAOdHdsWgVlEF41F/xRiwwUU4FPhVCJG4Um2bLvlVjgmD5XTezR9ZqvutoqScpYs6hnguWLT02QRHdj8uvL2EY8mhoXhwAZnypRNfGC+zbDEuHHGfsmUgVQ+JiXyqYk0VUKtYCfUOkJ4xBgSf6oja66tQLA30cz7PZDIsnPBx4uJa3Be9b2JiIh1I8g4lbqy9m+pHRC0yq+t9Fdi+oTuKe2SYkN7UdvOyWO4PgupJNptBR2o6ZgVciV2tonUGCsOpn9RUcSGMk0kkH/Mjo2IM2K6DT4UQiSvVDtBZLA5OC4uPe3iP4WWR21g1gT3KbLE9rrR55bV+sX8Ldy12xUlc1fi4tQhvw+xGUj47nmPGs72qu65C7IbGgdmPFrArxIQWnWHUUTHeoDrh5aphN1NDz02ne1qTAXJHYQ2bIOyZ8nDNopdtxRMSjj8eu5dsL+yw3E1ZR9Dskyc3TorpfAiTIcoIbkCi5EUxux0mA49rohjQOZiOEdZnJzjR+fnOkOxNKZjT9RklGPWpEpOkXM7Q7CMB2awYqWs6AyVaC6Q+SE6GA3rMPr98mbz8Ofn4POToEMtTBW3Eo/jO6GWLI/EJRve4yt5i0nS7vbAHIuNBNSWQmivVOWcSjRR2g5hQ7wwB2OTspvNcRKsYqQf6KS75VK02vzadj+X6YPGx0mIysN6efflfnnIRIbjMy/bA2ry4Ot9q4WaV6MnJcdZknwPKfZYdQfAufsXaq9rzOqKURcKgQG8mE/p1PnifHyvaufr8EswFcH4+vpO1g6xSvdQ1HfVD7U72faBf/LLwnzEs/HgN3M3eBlfs4p3/XNye0/uQbBQqxz2pN/Qa8J5p5gTBlaHh6GRjgc7UJhCfK4rxdtURTPRt/Gxq83M68Usa0XOlmDYdhVX74D7kWeeHRdk79crPvWUVoajEm1+9B6pTA11da2FxA+OYGwQvGxfeA0Chc+Bd6EW+qni50lYsAwkdWDGeS3UEE30tOeLOpjY/p3u6k6FxOVS9D3QBiF333dh1fH12NHxs5afe/UvpUYh3HLVF6GVn4+xqpOo7WV2fvFwbFzAGa8hGYQBsIXm2Ex8/WFcZWtckYjaICl4nEdikdq+zHoCnYTdTQ9/kerqT0RcPZ1D0P75Ag/oW9OdrnRi+MXrDg1euWDHRo+5QiXctHQ8z+bswGUfbnYwBfUoObf1npv7ceR5x6+IK/VcSskHE7EKUIg0gNCAEcHiagX4CwgEMT6cgH3j+AU83IjP4ZBLuGykJwxwhkqote2KihkFDASZ4HSLgEXuw4KZddjse0rgY7Qs6a0evG9n1XnyyqZoIG9X0yBtA9UFMBl9JJ1oLgngDZCIwk++DKM2muKToYm+1pedkFgOrgFrFSlAmCo2iGAM6ndipSmUyzzsPYBfxUwzoMtzYvKGM5QNZMfJk7PVs7VRwf726odIXsJr6BgzN6ZHZorNu/tqV550y229NmhiP74Qbntw5jOZvx0S8D6el1RvE3qk2VN8AyJKqeSFHwRhUbabALisW2C9i2+WiAGooqEVnwZLX3JOhPIiC3QOuea7FRHwZd4S+fsWCW+8IektCqZ7FmifijlV7hFtXvSaMxBMwGS/lawTtkx83D6sam0KqXJCmLXeKVFudA98lyqeQpXQrwGwqqJOQc6W2uYjVr8Jit4TDVf6VrNP56Mj87e5YMfHy1i0hxok83HHttqE7s00oR/kOqEaq17KCN9dzrF5WarZaI0Gm8DN1LObj9vcOuAB4Xrht9SEwHIjfvPG1Ojq9Tbev0rpZjaVa+4FmtbdZdLFRW+wGg8CyKdBOchfbxi+xT91VfSpnB66MLpoEahITtqHDZBR45/Ocy85+U98P+7xW3r5mQRgdOxS3094U7rnuyDBGT0aO4n19CUd81GHakFWWn/zDWHXIYSPHFj+c1FvBw2VVgZ5MdFTAcYwLnc7SFTPp6S8t2FST2SZqrlSBWsVKqIBsE4CXCeG2vC52H/eGIts1sSmj1ox2pA29bzIKCtZ5A75BlYevFiMLPlERJSne/1svCvcVvx7G570RndqXj+cFfHnbEQ6j8u31yETvBlmTqYMbytnHwwpapFKLYUqxubbFc7oWkVTdWJSPJpsO0nu36QgNPZsa2KYOHcYtiF90ivwTPzn7uP9OceBKDyzPn/8enEr+Nk6598ZfOr83OhH6+CS2VeaQ+mQBBuit30ZQH0dfPMfTl3y1oVbR0aauqE0AXDmwbws/zrIynO1gp+WNzOYcE7ssoe8zqc4ZQJh38A5NFj976SdPvFEp4l0nj4fu6r/AfvodmBDZXzg/A5Lg9CxK28sM8zgnNyfATCJw1SLPydnWL9JRsQBJ9s2mvS82A3Cl3gl30z1m/3R0jdivGTZAHwmyJ0+8vG/GNN86vqD7BVXFC5d2Q3fNB3D2clI1GWL1HCyrF+o+mwP4/nnZ+ko8wJuLCFytRxZXqrh4H1L4eCYP4kwUrTzUuYyuwTATmIo7ZTUVDyVEbUHIRG2pBdmqIx/80SluVhb/tGJiWfW09z5b/xom/j3YReFNKi3KK22LwUI9ptkUKxhqtvaVDcIhslUt/GSrZk44XYw+Gzs0YtcpKpeWeKSiftME5OFqYsvxrapf4GFqOQX1wcmsBXo2eXuLziclFtNZL/6HMTzwuvng+DtsGVvVOmm8g/gkpuGEsRZLMGxSHmo0ZFHJYOpjIoqBnHPYvE8znnVLBMa2yDlmpCgvoe7h+2HjuInG36+ldiqtQYwdGMi+qX6uxmu3d+TzO/ebaqb7epzR4c6yatbDYTiHN9EZnVjvl+cXEFctMvOKnmQnJpNTNHPDAHEymAkVmVeZjwi0hYxmV1Arx/svq3G6eXfabqBpBuwjgsJ0JvT54ZbMLfOx+VGQeNUpI/g8+G/g92hqorRwMJXweVng7MayYCqFSa39UmWTU/VNzibO58PLzTFYt0TwPF7uiwdjWT4Zig5/Fyyfml2Dd+AyfEQMhtaAxMaMqVZRdeRjfoqlW3/xgc70tmlXuNPDeKWhfF668CU89YqKCFwNkJlbbVKzK2QftyYrtfo1YhmWcA1O7ZPGoJqKxxHG3FpktgmgKXsekmnriOHmMFnw7f78uIVvxRfE4nVQ89pMsTma8KV2U6fB+kDSUZzyxrD6kel7072HooMve+b0KpjYhc8q5TMFCSiO34nJ5pZmM6EyssrrnezEWizybibOGOFkfg3ZY5jDFmIxxzp/Fq7BM7588pNPTGRlN8/oCP9w8tIg5KwEbTqJwZVgGZ58cOMqTQbZY7YFXvwZNzoSxMViON9kSzxGr86UKEtWU6ZYHDAJJove/KhNRgagrosVf5/BucDX3EXgqkVmGgNLbFKiZNkT+FsRFq+cpCb/bLh2sns9nkS5gyN4UkJQ1KaumRSBCZC9aotej17KlJtJrmM6oia/6pmXjN7HMXu1l9nPFv3uHuvH4mV2B9Cwc8gWSsBcOZknn0AoTTnGu6C9HLfU2IEn5JrPvP4JXFH/V57T40ZCRM4kc9PpPKFiaxjywV+1fRAP9pQEIluqktCQ0ezrMOm4kC85S/Gy9kPJGSZYk7VNtZeVsFF7fpLFhYWmzG1RDpKJvslJt3bz7OvZwZfhpCoVnhASy5h9BR6Pix4VmD05GTyhAmsYbqhljlpwNV/idy5eJrVv1/oBQ83WBM/B6Uy1sTX5Pc7kvqDSjxY9+XhOkulgnmcPhzh9rlGSShtXfnLZQzi4/wmusIFO/9dHqkiqKWgTQ7qkTvbaJtKweVwypQ43ObytRbY+kE37IzhWEZ9yepnUojccCVScvsYJPfmwWWqVzY0VzDKQX+NmGX6HCu/ODln5YHJIS5sQas6bv8M/4PrhR3ouZkDuiAaT2ndGB1HTmXcSvM3LZNVOmswA8Rsg9yUrwS2hzq3Oz0EU3B/b/CBsiGx0AqaqbzwSTvV0vMjDueHJ0QuqjiSpNiH4FW8Kt2j/DEf9h5rA1HZBq946k42gxX2Ar3aSPJruNZs3QrZmQzYeARhOu+QUnr8iTEAHq0wtSq9iT6fw/CrTZHSzH+KX2rOyl6/o+9W0NiHEt2oBHfGzs7B/S18bUCLtFcdzQUnf1LFPyy5rrg7PaWuLRw4aW2SrBN/aLwKh2LhEroXQBmrDiY6rpqxtqZv8mjv6rkMnuzD0en+YHXzpAwRrlr4JoX8ga12cPQ+nwR/GxKxNv3BqQHJ3QS0hTmcDaIYi1wE40s9pUy7CDZBJzTYBNOW5+JWSOSxAPZbxC9jBWDOIXzvcyVbh9tE5YbY8KTvsSvt9SNis6psQslx39tvW/uTsEz8d8+5x+AeaHsbE1AfL7uiRHzTp0ClSNfuqcK5pMbDzc9k0HhO4IBKNq/XIGxybYgkX+VCxJtlUIUqzEc416ExqFCnOsxtwHvubOGZ8IHvJFfeR96Di3nPoh1xx1gnfP/yMLx+F7ey0LC+PxMNs+AJOmI9nkfFVJkTjR1ApKgp1JG1OfEaXlC1L3+GmuWZzA6MMWLMhE0eWrcZlJ/0La4aqXQdxX8lKZukvAfQHS2jrNmqTkgrFUx/nzzoB8d6ZMVhwYxpuT8DxpjBV/HvYYd53sz1W4OG89Zc5JwQDjZfh383Y7/iJd262+177d8r8EHThV0G7E/6ZO/wOnl66ok5rn2k3ySXPbtrzqK3Klee5TviEe5kgvu1lTohyUHJa5Dx+BwfKz4cil2d9cKz0D5moS612Owc6tGrO0xMWDmkGD6rs5Kux6P3DDm4ZlbiDvqbzcPjRxQ9nE5qQymUuae4JEc8bl0/Qjcer8VDbNUvDbqOrJxeMzVs160bU/8//FeNTU8uXnaz32+Fumawnn2L4CfDyXJNBflToa6f0XEDsXJo9/9v8M2gy/O9cbtCE2NDwlOEKfDMN7Q3a/MyPv+bl5q8y1CfDT1ptMmoOqcHzK5OMf74nPNntxPPxCOimKMcvx3uxtc5tiijM+dQmZGN0w28BXq5NABJtG5QmnYK3yrRPeVGYt+4Pwv6TPfdVQezO3QZa6zt2q7Jnral9g5791nVo5ZFXxfO3vyhbtnwQofd8RvKQJgQrLj/UblmubxnPfGJeirk6opZl4tTdf40f+aJutNpg0C7SCYtOWl6cExb+DIfT2nQ/o8QPch7OhBRYseQMjDtSS5BmgCwuIU1ZzJYxdnO+fNrH7IA4fY2HQgyyQW+mhkzvkIR98He7BNh0lW6Umy5Ck7mWEBgtCV5uUfapnMJzepliO9gGTwb5cYEzbUn0AgvNxxDKcLYQHgi2f58sL9fWYiTBkigCVy0y8RqW5FrD2aD3prniGU4ErnTfxQPZpIvhbSE20GbiqK1jNEEVzqYqh2FR2k7NTtaGYDJxSJvW/NroPUhkrrCgz/INqQxxC2kbEQYrYzerJoEUg2S2OceBW4ZykAMV+EScsneze3AxdwnuKz0RxvJ9w0xxCJK+LWyYIuH1sZPzUJZDnBBKhgxWh2ZNEaydcmfJYbwzOlHzp5S1di0enLLsSaT8c6Ezc3a23+XV0/jXvexluMD8GJ4ePJwnhfl9EGPf5EJto93k0SwABuuTRWO3JJCNgLxIlYjszn5qo9rJNc6aE3D02nP+tbBw5Ew/Gcx5wEWX4PeJD2HHdE8tNhlTvCzcNzmU3dZwJoReO/D74VqufIMSwFmgheXaBA/1yddJSV6SRGsk9yzQc0//lu31g777PDgjL7MX/vhibEE/TTdMxbcWQ/k2bT2cCeliQnT9qg2ylmHLe33IgmmdKE2c82jyawj658Bn4p0O2Sb+3K6Xmjxt6E2gG86E4IdI7LtxS1qzg5GQbM0WmW0CGCRTQpqclqQGJ15gxN2C9teb1SeP8i66xFW9v+hU3SaqhzMhvXg3+o/fB6T4JNKs2PgbMsHZZgBVJCLP4+U2ziJuhu/AHZ4c+5fxxqULcWNkSd9r0DXefr+NrRnOhOz7nbuxb74Uv5zV1+hm4mx0MgGcDDcZPjlermYUDMCbiwkUdxy/U7wpXrsUX8+rl3jZknlhavZ38e7KAWap+GfwG8e9Yel2Le9VG3qjCbpn32iEg4jiLUfTF9Muwdd0FiZMS+I4f5JEL5NDlaC63JwAcbdZqfPQlcZFeLLmXGwJ14bZ6ckw0t0RZ1/H8DuPZdyB++ZjdcL9+AXqrdkhl16Y+r1pl8O7DnnekuvDrZedirUNb1GV+MaKDkwEnzgvE8wnyMtPZTJSmAxbwZF4re4gbLGPh5GRHk425mEytrXX7Dw/ra5ZuBifRuGXabTHm7Ie2haig4i3Hn0OEvBunAaPtK7Fc03GXBOQEi5h0PA8ZhOhZjMjfCFrkx9myx7BSxqLs8Mvx1YynDKcY4gfS5z+GG5dfAa7jjV8KlxLDgE1IyQ2ZGtCMLnuwoZWmyi58jLFlFL5Fbi1cil+Gj5qmJNBvRj6FkJB4yM4o3li7GhsKR9B8wA7s2lOAIG5IFOWrDlkwg7CmU0APhbboKds5HjKIWZfhHx2dsjlN5NpmOVZmRAdYLztxZuH3sLTkIXTsTXMxwQlk0+Wlynb6004UTRwojJn5jCihKfnp0L4Gb4cd9qwDuAUsFme1QnRzsSrX7FbGA9vxA2M1+DgujsStwOumOlLqfQ9J4E1kqxqtg6yCcg4LCIEfIMlRPqmIh7pjDfgqcKvhnzhD7IXfm+top6N+jkxITrweBW+bTg/vABvpe6Pa5b9cWW9Ny7WdsNuZEfs1rbBGVrqL31WlXLNf7pVEYtMAMHoN3EdXcLTs8qP4A8HaHrrOL8Z8Bvxpv714aBd78yyTf8AA/VwfUW7vD7cUO1YofEv/y0dw7X9eJjF30i5WSjzbXhiOgGfborbQd4q9IotkXV83BifCKE9Tonpo987QqAnGR/HpPwSp7kPY8u7Hx8kezR0Oqvwaf1JnOhOhcnV03g3YygXe08lef8DQmyyiUa3nUYAAAAASUVORK5CYII=;" vertex="1" parent="1">
          <mxGeometry x="410" y="382" width="30" height="30" as="geometry" />
        </mxCell>
      </root>
    </mxGraphModel>
  </diagram>
</mxfile>
